M48
METRIC,LZ,000.000
;FILE_FORMAT=3:3
;TYPE=PLATED
;Layer: PTH_Through_Via
;EasyEDA v6.5.40, 2024-02-17 19:59:00
;9a5be75d700b4a6385dc1106f27949ae,10
;Gerber Generator version 0.2
;Holesize 1 = 0.310 mm
T01C0.310
%
G05
G90
T01
X009500Y-011000
X009500Y-009250
X009500Y-007500
X009500Y-005750
X010000Y-004000
X001000Y-001000
X001000Y-003000
X001000Y-005000
X001000Y-007000
X001000Y-009000
X001000Y-011000
X001000Y-013000
X001000Y-015000
X001000Y-017000
X019000Y-001000
X019000Y-003000
X019000Y-015000
X019000Y-017000
X014000Y-013750
X004500Y-010250
X004500Y-004750
X004499Y-014000
X014000Y-010250
X014000Y-006500
M30
