G04 Layer: TopSilkscreenLayer*
G04 EasyEDA v6.5.40, 2024-02-17 19:59:00*
G04 9a5be75d700b4a6385dc1106f27949ae,10*
G04 Gerber Generator version 0.2*
G04 Scale: 100 percent, Rotated: No, Reflected: No *
G04 Dimensions in millimeters *
G04 leading zeros omitted , absolute positions ,4 integer and 5 decimal *
%FSLAX45Y45*%
%MOMM*%

%ADD10C,0.1524*%

%LPD*%
G36*
X1824989Y-525018D02*
G01*
X1824989Y-561187D01*
X1922932Y-561187D01*
X1922932Y-574141D01*
X1879244Y-573989D01*
X1863496Y-573379D01*
X1863496Y-573887D01*
X1922932Y-591921D01*
X1922932Y-604367D01*
X1863496Y-622147D01*
X1863496Y-622655D01*
X1869338Y-622147D01*
X1881428Y-621690D01*
X1922932Y-621639D01*
X1922932Y-633831D01*
X1850288Y-633831D01*
X1850288Y-615289D01*
X1907438Y-598017D01*
X1907438Y-597763D01*
X1850288Y-579983D01*
X1850288Y-561187D01*
X1824989Y-561187D01*
X1824989Y-665581D01*
X1850288Y-665581D01*
X1850288Y-652627D01*
X1897024Y-652627D01*
X1897024Y-643991D01*
X1907438Y-643991D01*
X1907438Y-652627D01*
X1922932Y-652627D01*
X1922932Y-665835D01*
X1907438Y-665835D01*
X1907438Y-695807D01*
X1897786Y-695807D01*
X1850288Y-665581D01*
X1824989Y-665581D01*
X1824989Y-714857D01*
X1849526Y-714857D01*
X1849932Y-707644D01*
X1850288Y-705713D01*
X1860956Y-705713D01*
X1860346Y-707593D01*
X1859737Y-712114D01*
X1859686Y-714603D01*
X1860194Y-720191D01*
X1860854Y-722579D01*
X1861718Y-724763D01*
X1862734Y-726592D01*
X1865375Y-729742D01*
X1867052Y-731113D01*
X1870659Y-733044D01*
X1874926Y-734415D01*
X1879701Y-735431D01*
X1884832Y-735939D01*
X1884832Y-735177D01*
X1882597Y-733704D01*
X1880514Y-731875D01*
X1878888Y-729640D01*
X1877466Y-727049D01*
X1876704Y-724001D01*
X1876450Y-720445D01*
X1876602Y-717499D01*
X1877110Y-714756D01*
X1877872Y-712266D01*
X1878990Y-710031D01*
X1880514Y-707999D01*
X1882343Y-706221D01*
X1884476Y-704697D01*
X1886864Y-703427D01*
X1889556Y-702310D01*
X1892452Y-701497D01*
X1895652Y-701040D01*
X1899056Y-700887D01*
X1902764Y-701040D01*
X1906168Y-701548D01*
X1909368Y-702462D01*
X1912264Y-703681D01*
X1914906Y-705205D01*
X1917242Y-707085D01*
X1919224Y-709269D01*
X1920900Y-711809D01*
X1922221Y-714451D01*
X1923186Y-717296D01*
X1923745Y-720394D01*
X1923948Y-723747D01*
X1923846Y-726338D01*
X1922830Y-731164D01*
X1920900Y-735584D01*
X1919579Y-737616D01*
X1917954Y-739546D01*
X1914042Y-742848D01*
X1909064Y-745490D01*
X1906168Y-746607D01*
X1903018Y-747369D01*
X1899564Y-747928D01*
X1891944Y-748385D01*
X1885848Y-748182D01*
X1879752Y-747623D01*
X1873808Y-746455D01*
X1868068Y-744575D01*
X1862988Y-742086D01*
X1858416Y-738733D01*
X1856486Y-736701D01*
X1854758Y-734415D01*
X1853184Y-731875D01*
X1851812Y-729081D01*
X1850796Y-725982D01*
X1850085Y-722579D01*
X1849678Y-718870D01*
X1849526Y-714857D01*
X1824989Y-714857D01*
X1824989Y-768451D01*
X1922932Y-768451D01*
X1922932Y-782167D01*
X1874316Y-782015D01*
X1864004Y-781659D01*
X1866544Y-783945D01*
X1875688Y-794359D01*
X1867814Y-801217D01*
X1850288Y-780135D01*
X1850288Y-768451D01*
X1824989Y-768451D01*
X1824989Y-858367D01*
X1850288Y-858367D01*
X1850288Y-837285D01*
X1850694Y-831087D01*
X1851812Y-825855D01*
X1853742Y-821436D01*
X1856384Y-817981D01*
X1859584Y-815187D01*
X1863394Y-813206D01*
X1867712Y-811987D01*
X1872640Y-811631D01*
X1875637Y-811784D01*
X1878533Y-812241D01*
X1881378Y-813053D01*
X1884070Y-814171D01*
X1886712Y-815594D01*
X1889099Y-817473D01*
X1891182Y-819658D01*
X1892960Y-822299D01*
X1894433Y-825449D01*
X1895449Y-829157D01*
X1896059Y-833323D01*
X1896262Y-844651D01*
X1922932Y-844651D01*
X1922932Y-858367D01*
X1824989Y-858367D01*
X1824989Y-889863D01*
X1850288Y-889863D01*
X1850288Y-876909D01*
X1897024Y-876909D01*
X1897024Y-868527D01*
X1907438Y-868527D01*
X1907438Y-876909D01*
X1922932Y-876909D01*
X1922932Y-890371D01*
X1907438Y-890371D01*
X1907438Y-920089D01*
X1897786Y-920089D01*
X1850288Y-889863D01*
X1824989Y-889863D01*
X1824989Y-944727D01*
X1850288Y-944727D01*
X1850288Y-932027D01*
X1897024Y-932027D01*
X1897024Y-923391D01*
X1907438Y-923391D01*
X1907438Y-932027D01*
X1922932Y-932027D01*
X1922932Y-945235D01*
X1907438Y-945235D01*
X1907438Y-974953D01*
X1897786Y-974953D01*
X1850288Y-944727D01*
X1824989Y-944727D01*
X1824989Y-985367D01*
X1922932Y-985367D01*
X1922932Y-1002385D01*
X1866036Y-1033119D01*
X1866036Y-1033373D01*
X1881022Y-1032611D01*
X1922932Y-1032611D01*
X1922932Y-1044803D01*
X1850288Y-1044803D01*
X1850288Y-1027785D01*
X1906930Y-997305D01*
X1906930Y-996797D01*
X1892452Y-997559D01*
X1850288Y-997559D01*
X1850288Y-985367D01*
X1824989Y-985367D01*
X1824989Y-1076299D01*
X1850288Y-1076299D01*
X1850288Y-1063599D01*
X1897024Y-1063599D01*
X1897024Y-1054963D01*
X1907438Y-1054963D01*
X1907438Y-1063599D01*
X1922932Y-1063599D01*
X1922932Y-1076807D01*
X1907438Y-1076807D01*
X1907438Y-1106525D01*
X1897786Y-1106525D01*
X1850288Y-1076299D01*
X1824989Y-1076299D01*
X1824989Y-1132941D01*
X1849272Y-1132941D01*
X1849577Y-1127252D01*
X1850542Y-1122019D01*
X1852066Y-1117295D01*
X1854098Y-1112875D01*
X1864512Y-1116939D01*
X1862734Y-1121156D01*
X1861464Y-1125321D01*
X1860702Y-1129284D01*
X1860448Y-1133195D01*
X1860702Y-1136142D01*
X1861464Y-1138529D01*
X1862734Y-1140460D01*
X1864512Y-1141831D01*
X1866493Y-1142593D01*
X1868830Y-1142847D01*
X1871624Y-1142492D01*
X1873910Y-1141577D01*
X1875891Y-1139647D01*
X1877720Y-1137005D01*
X1884324Y-1123950D01*
X1886864Y-1119733D01*
X1889912Y-1116431D01*
X1891639Y-1115161D01*
X1895602Y-1113231D01*
X1900428Y-1112215D01*
X1906219Y-1112266D01*
X1909114Y-1112774D01*
X1911807Y-1113688D01*
X1914296Y-1114907D01*
X1916480Y-1116584D01*
X1918360Y-1118565D01*
X1920036Y-1120902D01*
X1921408Y-1123543D01*
X1922525Y-1126490D01*
X1923338Y-1129792D01*
X1923796Y-1133500D01*
X1923948Y-1139393D01*
X1923694Y-1143050D01*
X1922525Y-1149756D01*
X1921662Y-1152702D01*
X1919884Y-1157071D01*
X1907692Y-1157071D01*
X1909673Y-1152296D01*
X1911502Y-1147165D01*
X1912670Y-1141882D01*
X1913026Y-1136751D01*
X1912772Y-1133246D01*
X1912010Y-1130401D01*
X1910537Y-1128369D01*
X1908708Y-1126845D01*
X1906473Y-1125880D01*
X1903882Y-1125575D01*
X1901037Y-1125931D01*
X1898548Y-1127099D01*
X1896567Y-1128979D01*
X1894738Y-1131671D01*
X1892909Y-1135126D01*
X1888794Y-1143914D01*
X1886356Y-1147927D01*
X1884984Y-1149807D01*
X1883359Y-1151483D01*
X1881530Y-1152855D01*
X1877314Y-1154988D01*
X1874875Y-1155700D01*
X1872132Y-1156157D01*
X1869084Y-1156309D01*
X1866138Y-1156106D01*
X1863394Y-1155598D01*
X1860804Y-1154734D01*
X1858416Y-1153515D01*
X1856384Y-1151839D01*
X1854606Y-1149858D01*
X1853082Y-1147622D01*
X1851812Y-1145133D01*
X1850694Y-1142339D01*
X1849932Y-1139393D01*
X1849424Y-1136243D01*
X1849272Y-1132941D01*
X1824989Y-1132941D01*
X1824989Y-1164437D01*
X1901088Y-1164437D01*
X1901088Y-1189329D01*
X1890420Y-1189329D01*
X1890420Y-1164437D01*
X1824989Y-1164437D01*
X1824989Y-1245971D01*
X1850288Y-1245971D01*
X1850440Y-1221384D01*
X1850948Y-1217523D01*
X1851710Y-1214018D01*
X1852828Y-1210919D01*
X1854098Y-1208176D01*
X1855673Y-1205738D01*
X1857552Y-1203706D01*
X1859686Y-1202029D01*
X1862226Y-1200810D01*
X1865071Y-1199896D01*
X1868220Y-1199388D01*
X1874215Y-1199337D01*
X1876602Y-1199642D01*
X1878787Y-1200200D01*
X1882597Y-1201928D01*
X1885797Y-1204214D01*
X1888236Y-1207008D01*
X1890928Y-1211935D01*
X1922932Y-1192377D01*
X1922932Y-1207871D01*
X1894230Y-1223619D01*
X1894230Y-1232255D01*
X1922932Y-1232255D01*
X1922932Y-1245971D01*
X1824989Y-1245971D01*
X1824989Y-1309471D01*
X1850288Y-1309471D01*
X1850389Y-1283766D01*
X1851304Y-1276248D01*
X1852066Y-1273149D01*
X1853082Y-1270304D01*
X1854403Y-1267866D01*
X1856028Y-1265834D01*
X1857908Y-1264259D01*
X1860092Y-1262888D01*
X1862632Y-1261973D01*
X1865426Y-1261364D01*
X1870608Y-1261313D01*
X1872538Y-1261567D01*
X1876196Y-1262735D01*
X1879193Y-1264310D01*
X1880463Y-1265326D01*
X1882546Y-1267866D01*
X1883968Y-1270914D01*
X1884324Y-1272641D01*
X1884832Y-1272641D01*
X1885899Y-1269187D01*
X1888642Y-1264564D01*
X1891284Y-1262176D01*
X1894890Y-1260398D01*
X1897024Y-1259840D01*
X1902104Y-1259433D01*
X1905304Y-1259586D01*
X1908200Y-1260195D01*
X1910892Y-1261110D01*
X1913280Y-1262481D01*
X1915566Y-1264158D01*
X1917496Y-1266139D01*
X1919122Y-1268476D01*
X1921510Y-1273911D01*
X1922322Y-1277061D01*
X1922780Y-1280515D01*
X1922932Y-1284325D01*
X1922932Y-1309471D01*
X1824989Y-1309471D01*
X1824989Y-1321663D01*
X1861210Y-1321663D01*
X1861210Y-1347317D01*
X1882546Y-1347317D01*
X1882546Y-1323441D01*
X1893468Y-1323441D01*
X1893468Y-1347317D01*
X1922932Y-1347317D01*
X1922932Y-1360779D01*
X1850288Y-1360779D01*
X1850288Y-1321663D01*
X1824989Y-1321663D01*
X1824989Y-1410055D01*
X1850034Y-1410055D01*
X1850034Y-1393799D01*
X1922932Y-1369161D01*
X1922932Y-1383893D01*
X1903628Y-1389481D01*
X1903628Y-1414119D01*
X1922932Y-1419707D01*
X1922932Y-1434439D01*
X1850034Y-1410055D01*
X1824989Y-1410055D01*
X1824989Y-1470710D01*
X1948332Y-1470710D01*
X1948332Y-525018D01*
G37*
G36*
X1864766Y-665327D02*
G01*
X1864766Y-665835D01*
X1870811Y-668629D01*
X1897024Y-683615D01*
X1897024Y-665835D01*
X1871624Y-665835D01*
G37*
G36*
X1899056Y-714095D02*
G01*
X1896313Y-714248D01*
X1893874Y-714705D01*
X1891741Y-715518D01*
X1889912Y-716635D01*
X1888388Y-717956D01*
X1887270Y-719582D01*
X1886610Y-721614D01*
X1886356Y-724001D01*
X1886457Y-725576D01*
X1887372Y-728522D01*
X1888947Y-730910D01*
X1890979Y-732840D01*
X1892198Y-733653D01*
X1894992Y-734568D01*
X1897786Y-734923D01*
X1900580Y-734720D01*
X1906066Y-733399D01*
X1908454Y-732129D01*
X1910486Y-730656D01*
X1912010Y-728827D01*
X1913178Y-726643D01*
X1913534Y-724255D01*
X1913331Y-722071D01*
X1912670Y-720090D01*
X1911553Y-718362D01*
X1909978Y-716889D01*
X1907946Y-715670D01*
X1905457Y-714756D01*
X1902510Y-714248D01*
G37*
G36*
X1873148Y-825347D02*
G01*
X1870303Y-825500D01*
X1867814Y-826109D01*
X1865731Y-827024D01*
X1864004Y-828395D01*
X1862785Y-830122D01*
X1861921Y-832256D01*
X1861413Y-834796D01*
X1861210Y-837793D01*
X1861210Y-844651D01*
X1885340Y-844651D01*
X1885289Y-837387D01*
X1884629Y-833577D01*
X1883359Y-830478D01*
X1881479Y-828090D01*
X1880260Y-827125D01*
X1878787Y-826312D01*
X1877110Y-825753D01*
G37*
G36*
X1864766Y-889863D02*
G01*
X1864766Y-890117D01*
X1871725Y-893419D01*
X1897024Y-907897D01*
X1897024Y-890371D01*
X1871624Y-890117D01*
X1868576Y-889863D01*
G37*
G36*
X1864766Y-944727D02*
G01*
X1864766Y-945235D01*
X1870811Y-948029D01*
X1897024Y-963015D01*
X1897024Y-945235D01*
X1872792Y-945083D01*
G37*
G36*
X1864766Y-1076299D02*
G01*
X1864766Y-1076807D01*
X1870811Y-1079601D01*
X1897024Y-1094587D01*
X1897024Y-1076807D01*
X1872792Y-1076655D01*
G37*
G36*
X1872132Y-1212951D02*
G01*
X1868525Y-1213307D01*
X1865782Y-1214475D01*
X1863750Y-1216304D01*
X1862226Y-1218793D01*
X1861464Y-1222197D01*
X1861210Y-1226413D01*
X1861210Y-1232255D01*
X1883562Y-1232255D01*
X1883511Y-1223975D01*
X1882851Y-1220266D01*
X1881581Y-1217472D01*
X1879701Y-1215288D01*
X1877161Y-1213815D01*
X1875637Y-1213307D01*
G37*
G36*
X1900834Y-1273657D02*
G01*
X1897786Y-1273911D01*
X1895246Y-1274673D01*
X1893214Y-1276299D01*
X1891690Y-1278737D01*
X1890725Y-1282039D01*
X1890420Y-1286357D01*
X1890420Y-1295755D01*
X1912010Y-1295755D01*
X1912010Y-1285849D01*
X1911807Y-1282649D01*
X1911248Y-1280007D01*
X1910283Y-1277823D01*
X1908962Y-1276197D01*
X1907336Y-1275080D01*
X1905406Y-1274267D01*
X1903272Y-1273810D01*
G37*
G36*
X1870354Y-1275181D02*
G01*
X1868119Y-1275334D01*
X1866188Y-1275943D01*
X1864563Y-1276858D01*
X1863242Y-1278229D01*
X1862378Y-1279956D01*
X1861718Y-1282090D01*
X1861210Y-1287627D01*
X1861210Y-1295755D01*
X1880006Y-1295755D01*
X1879854Y-1283817D01*
X1879396Y-1281277D01*
X1878584Y-1279245D01*
X1877466Y-1277721D01*
X1876196Y-1276604D01*
X1874570Y-1275791D01*
X1872640Y-1275334D01*
G37*
G36*
X1892452Y-1392783D02*
G01*
X1870964Y-1399235D01*
X1860702Y-1401927D01*
X1864410Y-1402537D01*
X1873910Y-1404975D01*
X1892452Y-1410817D01*
G37*
G36*
X1661718Y-43688D02*
G01*
X1661871Y-75742D01*
X1662734Y-83820D01*
X1662226Y-83820D01*
X1660042Y-80873D01*
X1657400Y-78232D01*
X1654200Y-75946D01*
X1650542Y-74168D01*
X1646428Y-72999D01*
X1641652Y-72644D01*
X1635709Y-73304D01*
X1630375Y-75184D01*
X1625549Y-78384D01*
X1621332Y-82804D01*
X1615643Y-95148D01*
X1613741Y-112522D01*
X1632762Y-112522D01*
X1633016Y-106781D01*
X1633677Y-101752D01*
X1634794Y-97383D01*
X1636318Y-93726D01*
X1638452Y-90830D01*
X1640890Y-88747D01*
X1643786Y-87528D01*
X1646986Y-87122D01*
X1651203Y-87528D01*
X1654708Y-88696D01*
X1657451Y-90678D01*
X1659432Y-93472D01*
X1660906Y-97129D01*
X1661922Y-101447D01*
X1662531Y-106527D01*
X1662734Y-114554D01*
X1662531Y-119887D01*
X1661871Y-124510D01*
X1660753Y-128422D01*
X1659178Y-131572D01*
X1657096Y-134010D01*
X1654454Y-135788D01*
X1651152Y-136804D01*
X1647240Y-137160D01*
X1643888Y-136753D01*
X1640992Y-135585D01*
X1638452Y-133604D01*
X1636318Y-130810D01*
X1634794Y-127304D01*
X1633677Y-123037D01*
X1633016Y-118160D01*
X1632762Y-112522D01*
X1613741Y-112522D01*
X1615643Y-129235D01*
X1621332Y-141478D01*
X1625447Y-145796D01*
X1630121Y-148894D01*
X1635353Y-150774D01*
X1641144Y-151384D01*
X1646123Y-150977D01*
X1650288Y-149860D01*
X1653844Y-148082D01*
X1656892Y-145796D01*
X1659534Y-143052D01*
X1661718Y-139954D01*
X1662480Y-139954D01*
X1666036Y-150114D01*
X1680260Y-150114D01*
X1680260Y-43688D01*
G37*
G36*
X1045260Y-44958D02*
G01*
X1043228Y-45059D01*
X1039672Y-46075D01*
X1038148Y-46990D01*
X1036828Y-48209D01*
X1035862Y-49784D01*
X1035303Y-51765D01*
X1035100Y-54102D01*
X1035303Y-56438D01*
X1035862Y-58419D01*
X1036828Y-59994D01*
X1038148Y-61214D01*
X1039672Y-62230D01*
X1041349Y-62941D01*
X1043228Y-63347D01*
X1045260Y-63500D01*
X1047242Y-63347D01*
X1049070Y-62941D01*
X1050798Y-62230D01*
X1052372Y-61214D01*
X1053592Y-59994D01*
X1054506Y-58419D01*
X1055014Y-56438D01*
X1055166Y-54102D01*
X1055014Y-51765D01*
X1054506Y-49784D01*
X1053592Y-48209D01*
X1052372Y-46990D01*
X1050798Y-46075D01*
X1049070Y-45466D01*
G37*
G36*
X991920Y-48514D02*
G01*
X987247Y-48717D01*
X982878Y-49326D01*
X978763Y-50393D01*
X974902Y-51816D01*
X971448Y-53644D01*
X968400Y-55829D01*
X965708Y-58318D01*
X963472Y-61214D01*
X961694Y-64414D01*
X960424Y-67970D01*
X959662Y-71780D01*
X959408Y-75946D01*
X959612Y-80060D01*
X960272Y-83820D01*
X961288Y-87172D01*
X962710Y-90170D01*
X964387Y-92964D01*
X966368Y-95453D01*
X968603Y-97637D01*
X971092Y-99568D01*
X976630Y-102920D01*
X982522Y-105918D01*
X988720Y-108458D01*
X993444Y-110998D01*
X997203Y-113639D01*
X998677Y-115112D01*
X1000709Y-118059D01*
X1001725Y-121615D01*
X1001725Y-125526D01*
X1001471Y-127254D01*
X1000302Y-130302D01*
X998169Y-132842D01*
X995222Y-134874D01*
X991412Y-136042D01*
X986586Y-136398D01*
X979424Y-135839D01*
X975817Y-135128D01*
X968502Y-132943D01*
X958646Y-129032D01*
X958646Y-145796D01*
X962406Y-147421D01*
X966520Y-148844D01*
X970787Y-150012D01*
X975410Y-150876D01*
X980236Y-151282D01*
X985570Y-151384D01*
X991057Y-151180D01*
X996137Y-150520D01*
X1000709Y-149402D01*
X1004874Y-147828D01*
X1008481Y-145948D01*
X1011631Y-143713D01*
X1014323Y-141020D01*
X1016558Y-137922D01*
X1018336Y-134569D01*
X1019606Y-130911D01*
X1020368Y-126949D01*
X1020622Y-122682D01*
X1020470Y-118922D01*
X1019962Y-115468D01*
X1019048Y-112318D01*
X1017828Y-109474D01*
X1016304Y-106883D01*
X1014476Y-104495D01*
X1012393Y-102311D01*
X1009954Y-100330D01*
X1004112Y-96774D01*
X988415Y-88950D01*
X984199Y-86360D01*
X981151Y-83667D01*
X979982Y-82296D01*
X978662Y-79197D01*
X978204Y-75438D01*
X978611Y-72237D01*
X979728Y-69342D01*
X981456Y-67056D01*
X984046Y-65278D01*
X985570Y-64617D01*
X989279Y-63855D01*
X994105Y-63855D01*
X999591Y-64617D01*
X1005179Y-66141D01*
X1010869Y-68275D01*
X1013764Y-69596D01*
X1019606Y-55117D01*
X1013358Y-52374D01*
X1006652Y-50292D01*
X999540Y-48971D01*
X995832Y-48615D01*
G37*
G36*
X595172Y-49530D02*
G01*
X575614Y-108204D01*
X594156Y-108204D01*
X603707Y-76504D01*
X606602Y-64262D01*
X609650Y-76962D01*
X619302Y-108204D01*
X575614Y-108204D01*
X561644Y-150114D01*
X581710Y-150114D01*
X589584Y-123444D01*
X623620Y-123444D01*
X631240Y-150114D01*
X651560Y-150114D01*
X617778Y-49530D01*
G37*
G36*
X343966Y-49784D02*
G01*
X303118Y-114046D01*
X319074Y-114046D01*
X340309Y-76809D01*
X343458Y-69850D01*
X343966Y-69850D01*
X343458Y-85598D01*
X343458Y-114046D01*
X303118Y-114046D01*
X302310Y-115316D01*
X302310Y-128524D01*
X343458Y-128524D01*
X343458Y-150114D01*
X361746Y-150114D01*
X361746Y-128524D01*
X373430Y-128524D01*
X373430Y-114046D01*
X361746Y-114046D01*
X361746Y-49784D01*
G37*
G36*
X495604Y-49784D02*
G01*
X455005Y-114046D01*
X470712Y-114046D01*
X490677Y-79502D01*
X495350Y-69850D01*
X495858Y-69850D01*
X495096Y-85598D01*
X495096Y-114046D01*
X455005Y-114046D01*
X454202Y-115316D01*
X454202Y-128524D01*
X495096Y-128524D01*
X495096Y-150114D01*
X513384Y-150114D01*
X513384Y-128524D01*
X525322Y-128524D01*
X525322Y-114046D01*
X513384Y-114046D01*
X513384Y-49784D01*
G37*
G36*
X1076248Y-50038D02*
G01*
X1076248Y-64769D01*
X1104442Y-64769D01*
X1108506Y-65024D01*
X1112012Y-65786D01*
X1115009Y-67056D01*
X1117396Y-68834D01*
X1119174Y-71120D01*
X1120444Y-73964D01*
X1121206Y-77368D01*
X1121460Y-81280D01*
X1121359Y-84175D01*
X1120902Y-86817D01*
X1120190Y-89154D01*
X1119174Y-91186D01*
X1117904Y-92862D01*
X1116380Y-94284D01*
X1114602Y-95504D01*
X1112570Y-96520D01*
X1110335Y-97282D01*
X1105103Y-98196D01*
X1095044Y-98298D01*
X1095044Y-64769D01*
X1076248Y-64769D01*
X1076248Y-150114D01*
X1095044Y-150114D01*
X1095044Y-113283D01*
X1103934Y-113283D01*
X1110437Y-112979D01*
X1116279Y-112115D01*
X1121359Y-110693D01*
X1125778Y-108712D01*
X1129436Y-106222D01*
X1132535Y-103378D01*
X1135024Y-100126D01*
X1136954Y-96520D01*
X1138529Y-92760D01*
X1139647Y-88849D01*
X1140307Y-84734D01*
X1140510Y-80518D01*
X1138377Y-67818D01*
X1131874Y-58166D01*
X1120902Y-52069D01*
X1105204Y-50038D01*
G37*
G36*
X1158290Y-50038D02*
G01*
X1158290Y-150114D01*
X1175054Y-150114D01*
X1174953Y-90017D01*
X1173784Y-68072D01*
X1174546Y-68072D01*
X1198676Y-150114D01*
X1215948Y-150114D01*
X1241094Y-68326D01*
X1241602Y-68326D01*
X1241094Y-76200D01*
X1240739Y-89712D01*
X1240586Y-150114D01*
X1258366Y-150114D01*
X1258366Y-50038D01*
X1232458Y-50038D01*
X1208074Y-128524D01*
X1207820Y-128524D01*
X1183944Y-50038D01*
G37*
G36*
X1316024Y-50038D02*
G01*
X1316024Y-64769D01*
X1345996Y-64769D01*
X1350162Y-64973D01*
X1353718Y-65532D01*
X1356614Y-66497D01*
X1358950Y-67818D01*
X1360728Y-69545D01*
X1361998Y-71780D01*
X1362760Y-74371D01*
X1363014Y-77470D01*
X1362811Y-80568D01*
X1362202Y-83261D01*
X1361186Y-85496D01*
X1359712Y-87376D01*
X1357579Y-88798D01*
X1354785Y-89865D01*
X1351229Y-90474D01*
X1347012Y-90678D01*
X1334820Y-90678D01*
X1334820Y-64769D01*
X1316024Y-64769D01*
X1316024Y-105156D01*
X1351026Y-105257D01*
X1353870Y-105613D01*
X1356360Y-106172D01*
X1358442Y-106933D01*
X1360220Y-107899D01*
X1362913Y-110439D01*
X1364437Y-113639D01*
X1364945Y-115468D01*
X1365300Y-119633D01*
X1365097Y-122986D01*
X1364437Y-125983D01*
X1363319Y-128574D01*
X1361744Y-130810D01*
X1359509Y-132689D01*
X1356563Y-134061D01*
X1352905Y-134874D01*
X1348536Y-135128D01*
X1334820Y-135128D01*
X1334820Y-105156D01*
X1316024Y-105156D01*
X1316024Y-150114D01*
X1350568Y-150114D01*
X1355750Y-149910D01*
X1360474Y-149199D01*
X1364894Y-148132D01*
X1368856Y-146558D01*
X1372463Y-144729D01*
X1375664Y-142494D01*
X1378458Y-139903D01*
X1380794Y-136906D01*
X1382572Y-133451D01*
X1383842Y-129743D01*
X1384604Y-125730D01*
X1384858Y-121412D01*
X1384757Y-117652D01*
X1384300Y-114300D01*
X1383588Y-111302D01*
X1382572Y-108712D01*
X1381201Y-106426D01*
X1379626Y-104394D01*
X1377797Y-102616D01*
X1375714Y-101092D01*
X1371498Y-98907D01*
X1366824Y-97536D01*
X1366824Y-97028D01*
X1369161Y-96418D01*
X1371295Y-95504D01*
X1373225Y-94335D01*
X1376629Y-91440D01*
X1378153Y-89662D01*
X1379423Y-87630D01*
X1381455Y-83007D01*
X1382471Y-77927D01*
X1382572Y-75184D01*
X1382318Y-70713D01*
X1381556Y-66802D01*
X1380286Y-63398D01*
X1378508Y-60452D01*
X1376222Y-57861D01*
X1373378Y-55676D01*
X1370025Y-53949D01*
X1366062Y-52578D01*
X1361744Y-51460D01*
X1356817Y-50647D01*
X1351330Y-50190D01*
G37*
G36*
X700328Y-72644D02*
G01*
X698093Y-72745D01*
X693775Y-73761D01*
X691692Y-74676D01*
X688035Y-77012D01*
X684580Y-80010D01*
X681786Y-83515D01*
X679500Y-87376D01*
X678484Y-87376D01*
X675944Y-74168D01*
X661720Y-74168D01*
X661720Y-150114D01*
X680262Y-150114D01*
X680364Y-108051D01*
X681126Y-103225D01*
X681786Y-101092D01*
X683768Y-97332D01*
X686104Y-94234D01*
X689051Y-91998D01*
X692200Y-90424D01*
X695604Y-89458D01*
X699058Y-89154D01*
X704748Y-89560D01*
X706170Y-89916D01*
X707948Y-73406D01*
X706323Y-72999D01*
G37*
G36*
X759002Y-72644D02*
G01*
X756666Y-72745D01*
X752348Y-73761D01*
X748436Y-75793D01*
X746556Y-77012D01*
X743254Y-80010D01*
X740308Y-83515D01*
X737920Y-87376D01*
X736904Y-87376D01*
X734364Y-74168D01*
X720140Y-74168D01*
X720140Y-150114D01*
X738682Y-150114D01*
X738682Y-110744D01*
X739140Y-105562D01*
X740460Y-101092D01*
X742340Y-97332D01*
X744778Y-94234D01*
X747522Y-91998D01*
X750620Y-90424D01*
X754024Y-89458D01*
X757478Y-89154D01*
X762457Y-89458D01*
X764844Y-89916D01*
X766368Y-73406D01*
X764946Y-72999D01*
G37*
G36*
X806246Y-72644D02*
G01*
X802386Y-72745D01*
X794867Y-73660D01*
X791260Y-74422D01*
X784555Y-76657D01*
X778560Y-79248D01*
X784402Y-91694D01*
X794308Y-87630D01*
X799388Y-86461D01*
X804468Y-86106D01*
X807110Y-86309D01*
X809447Y-86868D01*
X811428Y-87833D01*
X813104Y-89154D01*
X814324Y-90932D01*
X815238Y-93268D01*
X815746Y-96164D01*
X815898Y-103124D01*
X803960Y-103632D01*
X789736Y-105562D01*
X779576Y-110235D01*
X776020Y-113537D01*
X773480Y-117551D01*
X771956Y-122275D01*
X771461Y-128016D01*
X790498Y-128016D01*
X790752Y-125120D01*
X791464Y-122529D01*
X792683Y-120294D01*
X794308Y-118364D01*
X796645Y-116789D01*
X799744Y-115620D01*
X803605Y-114909D01*
X816152Y-114046D01*
X816152Y-120650D01*
X815898Y-124714D01*
X815035Y-128219D01*
X813612Y-131165D01*
X811580Y-133604D01*
X809193Y-135585D01*
X806500Y-137007D01*
X803605Y-137871D01*
X800404Y-138176D01*
X798271Y-138023D01*
X796290Y-137566D01*
X794562Y-136753D01*
X793038Y-135636D01*
X791921Y-134315D01*
X791159Y-132588D01*
X790651Y-130505D01*
X790498Y-128016D01*
X771461Y-128016D01*
X771652Y-131673D01*
X772160Y-135178D01*
X773023Y-138379D01*
X774242Y-141224D01*
X775919Y-143611D01*
X777798Y-145694D01*
X779983Y-147421D01*
X782370Y-148844D01*
X784910Y-149961D01*
X787603Y-150774D01*
X790498Y-151231D01*
X796493Y-151282D01*
X801573Y-150672D01*
X805789Y-149504D01*
X809498Y-147574D01*
X812749Y-144830D01*
X817422Y-139446D01*
X817930Y-139446D01*
X821740Y-150114D01*
X834694Y-150114D01*
X834694Y-99060D01*
X834237Y-92659D01*
X832866Y-87172D01*
X830580Y-82651D01*
X827328Y-78994D01*
X823264Y-76200D01*
X818388Y-74218D01*
X812749Y-73050D01*
G37*
G36*
X1432610Y-72644D02*
G01*
X1427480Y-72948D01*
X1422654Y-73812D01*
X1418183Y-75234D01*
X1414068Y-77216D01*
X1410462Y-79756D01*
X1407312Y-82854D01*
X1404518Y-86512D01*
X1402130Y-90678D01*
X1400352Y-95250D01*
X1399082Y-100330D01*
X1398320Y-105918D01*
X1398066Y-112014D01*
X1416862Y-112014D01*
X1417116Y-106273D01*
X1417777Y-101295D01*
X1418894Y-97028D01*
X1420418Y-93472D01*
X1422603Y-90678D01*
X1425346Y-88696D01*
X1428597Y-87528D01*
X1432356Y-87122D01*
X1435049Y-87274D01*
X1437436Y-87833D01*
X1439621Y-88696D01*
X1441500Y-89916D01*
X1443075Y-91490D01*
X1444447Y-93421D01*
X1445615Y-95656D01*
X1446580Y-98298D01*
X1447749Y-104495D01*
X1448104Y-112014D01*
X1447749Y-119329D01*
X1446580Y-125476D01*
X1445615Y-128219D01*
X1444447Y-130556D01*
X1443075Y-132537D01*
X1441500Y-134112D01*
X1439621Y-135432D01*
X1437538Y-136398D01*
X1435201Y-136956D01*
X1432610Y-137160D01*
X1429969Y-136956D01*
X1427530Y-136398D01*
X1425397Y-135432D01*
X1423466Y-134112D01*
X1421942Y-132537D01*
X1420571Y-130556D01*
X1419402Y-128219D01*
X1418386Y-125476D01*
X1417269Y-119329D01*
X1416862Y-112014D01*
X1398066Y-112014D01*
X1398219Y-116585D01*
X1398727Y-120904D01*
X1399489Y-124968D01*
X1400606Y-128778D01*
X1402029Y-132232D01*
X1403654Y-135432D01*
X1405585Y-138430D01*
X1407718Y-141224D01*
X1410157Y-143611D01*
X1412748Y-145694D01*
X1415592Y-147421D01*
X1418640Y-148844D01*
X1421892Y-149961D01*
X1425244Y-150774D01*
X1428750Y-151231D01*
X1432356Y-151384D01*
X1436217Y-151231D01*
X1439926Y-150774D01*
X1443482Y-149961D01*
X1446834Y-148844D01*
X1449933Y-147421D01*
X1452778Y-145694D01*
X1455369Y-143611D01*
X1457756Y-141224D01*
X1459941Y-138430D01*
X1461770Y-135432D01*
X1463344Y-132232D01*
X1464614Y-128778D01*
X1465630Y-124968D01*
X1466342Y-120904D01*
X1466799Y-116585D01*
X1466900Y-112014D01*
X1466646Y-105918D01*
X1465834Y-100330D01*
X1464513Y-95250D01*
X1462582Y-90678D01*
X1460195Y-86614D01*
X1457401Y-83007D01*
X1454099Y-79857D01*
X1450390Y-77216D01*
X1446428Y-75234D01*
X1442161Y-73761D01*
X1437538Y-72948D01*
G37*
G36*
X1513636Y-72644D02*
G01*
X1509776Y-72745D01*
X1502257Y-73660D01*
X1498650Y-74422D01*
X1491945Y-76657D01*
X1485950Y-79248D01*
X1491538Y-91694D01*
X1499158Y-88544D01*
X1504238Y-86969D01*
X1509318Y-86207D01*
X1511858Y-86106D01*
X1514398Y-86309D01*
X1516634Y-86868D01*
X1518615Y-87833D01*
X1520240Y-89154D01*
X1521612Y-90932D01*
X1522526Y-93268D01*
X1523136Y-96164D01*
X1523288Y-103124D01*
X1511350Y-103632D01*
X1496974Y-105562D01*
X1486712Y-110235D01*
X1483156Y-113537D01*
X1480616Y-117551D01*
X1479092Y-122275D01*
X1478597Y-128016D01*
X1497634Y-128016D01*
X1497888Y-125120D01*
X1498650Y-122529D01*
X1499920Y-120294D01*
X1501698Y-118364D01*
X1503984Y-116789D01*
X1507032Y-115620D01*
X1510842Y-114909D01*
X1523542Y-114046D01*
X1523542Y-120650D01*
X1523238Y-124714D01*
X1522374Y-128219D01*
X1520850Y-131165D01*
X1518716Y-133604D01*
X1516329Y-135585D01*
X1513636Y-137007D01*
X1510741Y-137871D01*
X1507540Y-138176D01*
X1505508Y-138023D01*
X1503629Y-137566D01*
X1501952Y-136753D01*
X1500428Y-135636D01*
X1499209Y-134315D01*
X1498346Y-132588D01*
X1497838Y-130505D01*
X1497634Y-128016D01*
X1478597Y-128016D01*
X1478788Y-131673D01*
X1479346Y-135178D01*
X1480312Y-138379D01*
X1481632Y-141224D01*
X1483207Y-143611D01*
X1485036Y-145694D01*
X1487119Y-147421D01*
X1489506Y-148844D01*
X1492148Y-149961D01*
X1494942Y-150774D01*
X1497838Y-151231D01*
X1503883Y-151282D01*
X1508963Y-150672D01*
X1513078Y-149504D01*
X1516786Y-147574D01*
X1520037Y-144830D01*
X1524812Y-139446D01*
X1525320Y-139446D01*
X1528876Y-150114D01*
X1541830Y-150114D01*
X1541830Y-99060D01*
X1541424Y-92659D01*
X1540052Y-87172D01*
X1537868Y-82651D01*
X1534718Y-78994D01*
X1530654Y-76200D01*
X1525778Y-74218D01*
X1520139Y-73050D01*
G37*
G36*
X1600504Y-72644D02*
G01*
X1598269Y-72745D01*
X1593951Y-73761D01*
X1589938Y-75793D01*
X1588058Y-77012D01*
X1584756Y-80010D01*
X1581810Y-83515D01*
X1579422Y-87376D01*
X1578406Y-87376D01*
X1575866Y-74168D01*
X1561642Y-74168D01*
X1561642Y-150114D01*
X1580184Y-150114D01*
X1580184Y-110744D01*
X1580642Y-105562D01*
X1581962Y-101092D01*
X1583842Y-97332D01*
X1586280Y-94234D01*
X1589176Y-91998D01*
X1592122Y-90424D01*
X1595526Y-89458D01*
X1598980Y-89154D01*
X1603959Y-89458D01*
X1606346Y-89916D01*
X1608124Y-73406D01*
X1606499Y-72999D01*
G37*
G36*
X378002Y-74168D02*
G01*
X401370Y-111252D01*
X376986Y-150114D01*
X398068Y-150114D01*
X413816Y-122428D01*
X429564Y-150114D01*
X450392Y-150114D01*
X425754Y-111252D01*
X449376Y-74168D01*
X428294Y-74168D01*
X413816Y-99822D01*
X399338Y-74168D01*
G37*
G36*
X844346Y-74168D02*
G01*
X872794Y-149606D01*
X870458Y-157835D01*
X868934Y-161239D01*
X866902Y-164236D01*
X864514Y-166674D01*
X861669Y-168402D01*
X858266Y-169316D01*
X855167Y-169418D01*
X851966Y-169164D01*
X848410Y-168402D01*
X848410Y-182372D01*
X855268Y-183540D01*
X862126Y-183489D01*
X865632Y-182930D01*
X868883Y-182067D01*
X871778Y-180848D01*
X874471Y-179273D01*
X877011Y-177393D01*
X879297Y-175209D01*
X881430Y-172720D01*
X883361Y-169926D01*
X885139Y-166878D01*
X888034Y-160020D01*
X918260Y-74168D01*
X898702Y-74168D01*
X884631Y-118872D01*
X881684Y-132842D01*
X881176Y-132842D01*
X880414Y-127508D01*
X879043Y-120904D01*
X864158Y-74168D01*
G37*
G36*
X1035862Y-74168D02*
G01*
X1035862Y-150114D01*
X1054404Y-150114D01*
X1054404Y-74168D01*
G37*
G36*
X1169162Y-1848612D02*
G01*
X1163472Y-1849018D01*
X1158443Y-1850136D01*
X1153972Y-1852015D01*
X1150112Y-1854707D01*
X1146810Y-1858111D01*
X1144016Y-1862124D01*
X1141730Y-1866849D01*
X1139952Y-1872234D01*
X1137462Y-1884883D01*
X1136650Y-1899920D01*
X1155192Y-1899920D01*
X1155496Y-1888540D01*
X1156462Y-1879346D01*
X1157224Y-1875536D01*
X1158189Y-1872234D01*
X1159357Y-1869439D01*
X1160780Y-1867154D01*
X1162558Y-1865375D01*
X1164539Y-1864106D01*
X1166723Y-1863343D01*
X1169162Y-1863089D01*
X1171600Y-1863343D01*
X1173784Y-1864106D01*
X1175766Y-1865375D01*
X1177544Y-1867154D01*
X1178966Y-1869439D01*
X1180134Y-1872284D01*
X1181100Y-1875688D01*
X1181862Y-1879600D01*
X1182827Y-1888743D01*
X1183132Y-1899920D01*
X1182827Y-1911146D01*
X1181862Y-1920493D01*
X1181100Y-1924304D01*
X1180134Y-1927606D01*
X1178966Y-1930400D01*
X1177544Y-1932686D01*
X1175766Y-1934464D01*
X1173784Y-1935734D01*
X1171600Y-1936496D01*
X1169162Y-1936750D01*
X1166723Y-1936496D01*
X1164539Y-1935734D01*
X1162558Y-1934464D01*
X1160780Y-1932686D01*
X1159357Y-1930400D01*
X1158189Y-1927606D01*
X1157224Y-1924304D01*
X1156462Y-1920493D01*
X1155496Y-1911146D01*
X1155192Y-1899920D01*
X1136650Y-1899920D01*
X1137513Y-1914855D01*
X1140206Y-1927606D01*
X1142136Y-1932990D01*
X1144524Y-1937715D01*
X1147470Y-1941728D01*
X1150874Y-1945132D01*
X1154684Y-1947925D01*
X1159002Y-1949907D01*
X1163828Y-1951075D01*
X1169162Y-1951482D01*
X1173429Y-1951278D01*
X1177442Y-1950618D01*
X1181049Y-1949500D01*
X1184402Y-1947925D01*
X1187297Y-1945944D01*
X1189939Y-1943607D01*
X1192276Y-1940864D01*
X1194308Y-1937766D01*
X1196187Y-1934260D01*
X1197813Y-1930400D01*
X1199134Y-1926132D01*
X1200150Y-1921510D01*
X1201318Y-1911400D01*
X1201674Y-1899920D01*
X1200861Y-1884883D01*
X1198372Y-1872234D01*
X1196340Y-1866747D01*
X1193850Y-1862023D01*
X1190904Y-1858010D01*
X1187450Y-1854707D01*
X1183640Y-1852015D01*
X1179322Y-1850136D01*
X1174496Y-1848967D01*
G37*
G36*
X761746Y-1850136D02*
G01*
X761746Y-1865122D01*
X788670Y-1865122D01*
X794461Y-1865426D01*
X799084Y-1866392D01*
X800963Y-1867255D01*
X802640Y-1868373D01*
X804011Y-1869693D01*
X805180Y-1871218D01*
X806043Y-1872996D01*
X806704Y-1875078D01*
X807110Y-1877466D01*
X807110Y-1882546D01*
X806704Y-1884781D01*
X806043Y-1886864D01*
X805180Y-1888743D01*
X804011Y-1890420D01*
X802640Y-1891842D01*
X800963Y-1893062D01*
X799084Y-1894078D01*
X797052Y-1894839D01*
X794715Y-1895398D01*
X792073Y-1895754D01*
X780542Y-1895856D01*
X780542Y-1865122D01*
X761746Y-1865122D01*
X761746Y-1949957D01*
X780542Y-1949957D01*
X780542Y-1910588D01*
X792734Y-1910588D01*
X814324Y-1949957D01*
X835660Y-1949957D01*
X808736Y-1906016D01*
X813308Y-1903577D01*
X817372Y-1900428D01*
X819302Y-1898650D01*
X820978Y-1896618D01*
X822452Y-1894332D01*
X824839Y-1889099D01*
X825652Y-1886153D01*
X826109Y-1882902D01*
X826262Y-1879346D01*
X826008Y-1874621D01*
X825246Y-1870303D01*
X823976Y-1866493D01*
X822198Y-1863089D01*
X819912Y-1859991D01*
X817118Y-1857298D01*
X813816Y-1855063D01*
X810006Y-1853184D01*
X805789Y-1851863D01*
X800963Y-1850898D01*
X795629Y-1850339D01*
X789686Y-1850136D01*
G37*
G36*
X1056132Y-1850136D02*
G01*
X1027176Y-1874012D01*
X1036574Y-1884934D01*
X1046987Y-1876043D01*
X1053846Y-1868678D01*
X1053592Y-1879752D01*
X1053592Y-1949957D01*
X1072134Y-1949957D01*
X1072134Y-1850136D01*
G37*
G36*
X875792Y-1872742D02*
G01*
X870966Y-1873046D01*
X866444Y-1873859D01*
X862228Y-1875332D01*
X858266Y-1877314D01*
X854557Y-1879854D01*
X851357Y-1882952D01*
X848614Y-1886610D01*
X846328Y-1890775D01*
X844448Y-1895449D01*
X843076Y-1900682D01*
X842645Y-1903730D01*
X861314Y-1903730D01*
X861872Y-1899564D01*
X862837Y-1895906D01*
X864158Y-1892807D01*
X865886Y-1890268D01*
X868019Y-1888286D01*
X870458Y-1886813D01*
X873150Y-1886000D01*
X876046Y-1885696D01*
X878230Y-1885848D01*
X880262Y-1886254D01*
X882040Y-1886966D01*
X883666Y-1887982D01*
X885088Y-1889252D01*
X887374Y-1892401D01*
X888237Y-1894332D01*
X889355Y-1898700D01*
X889762Y-1903730D01*
X842645Y-1903730D01*
X842264Y-1906422D01*
X842010Y-1912620D01*
X842314Y-1918817D01*
X843229Y-1924507D01*
X844702Y-1929638D01*
X846836Y-1934210D01*
X849325Y-1938274D01*
X852322Y-1941779D01*
X855675Y-1944725D01*
X859536Y-1947164D01*
X863752Y-1949043D01*
X868273Y-1950415D01*
X873150Y-1951228D01*
X878332Y-1951482D01*
X886053Y-1951177D01*
X892556Y-1950212D01*
X898093Y-1948586D01*
X903478Y-1946148D01*
X903478Y-1932178D01*
X897686Y-1934565D01*
X892048Y-1936242D01*
X886307Y-1937359D01*
X879856Y-1937766D01*
X875639Y-1937410D01*
X871982Y-1936343D01*
X868781Y-1934616D01*
X866140Y-1932178D01*
X864006Y-1929079D01*
X862431Y-1925370D01*
X861466Y-1921103D01*
X861060Y-1916175D01*
X907542Y-1916175D01*
X907542Y-1907032D01*
X907287Y-1901799D01*
X906526Y-1896922D01*
X905256Y-1892503D01*
X903478Y-1888489D01*
X901344Y-1884883D01*
X898855Y-1881784D01*
X895908Y-1879041D01*
X892556Y-1876806D01*
X888847Y-1875028D01*
X884834Y-1873757D01*
X880465Y-1872996D01*
G37*
G36*
X910844Y-1874012D02*
G01*
X938021Y-1949957D01*
X957071Y-1949957D01*
X984503Y-1874012D01*
X964946Y-1874012D01*
X950163Y-1922170D01*
X948436Y-1929892D01*
X947674Y-1935225D01*
X947166Y-1935225D01*
X946658Y-1929892D01*
X944270Y-1919274D01*
X930148Y-1874012D01*
G37*
G36*
X1112774Y-1930146D02*
G01*
X1110691Y-1930298D01*
X1108710Y-1930755D01*
X1106881Y-1931568D01*
X1105154Y-1932686D01*
X1103833Y-1934057D01*
X1102868Y-1935937D01*
X1102309Y-1938274D01*
X1102106Y-1941068D01*
X1102309Y-1943658D01*
X1102868Y-1945893D01*
X1103833Y-1947722D01*
X1105154Y-1949196D01*
X1106881Y-1950313D01*
X1108710Y-1951126D01*
X1110691Y-1951583D01*
X1112774Y-1951736D01*
X1114856Y-1951583D01*
X1116838Y-1951126D01*
X1118666Y-1950313D01*
X1120394Y-1949196D01*
X1121816Y-1947722D01*
X1122883Y-1945893D01*
X1123492Y-1943658D01*
X1123696Y-1941068D01*
X1123492Y-1938274D01*
X1122883Y-1935937D01*
X1121816Y-1934057D01*
X1120394Y-1932686D01*
X1118666Y-1931568D01*
X1116838Y-1930755D01*
X1114856Y-1930298D01*
G37*
G36*
X50038Y-935990D02*
G01*
X50038Y-953262D01*
X129032Y-953262D01*
X129032Y-963676D01*
X128828Y-967790D01*
X128168Y-971550D01*
X127050Y-974902D01*
X125476Y-977900D01*
X123596Y-980643D01*
X121208Y-983030D01*
X118364Y-985113D01*
X115062Y-986790D01*
X111252Y-988009D01*
X106933Y-988872D01*
X102108Y-989431D01*
X96774Y-989584D01*
X82499Y-987856D01*
X72136Y-982726D01*
X68580Y-978865D01*
X66040Y-974090D01*
X64516Y-968451D01*
X64008Y-961898D01*
X64008Y-953262D01*
X50038Y-953262D01*
X50038Y-961390D01*
X51358Y-974852D01*
X55372Y-986282D01*
X58369Y-991209D01*
X61976Y-995476D01*
X66243Y-999185D01*
X71120Y-1002284D01*
X83007Y-1006449D01*
X97282Y-1007871D01*
X111048Y-1006551D01*
X122428Y-1002537D01*
X127101Y-999591D01*
X131165Y-996035D01*
X134721Y-991971D01*
X137668Y-987298D01*
X139903Y-982218D01*
X141478Y-976630D01*
X142443Y-970534D01*
X142748Y-963930D01*
X142748Y-935990D01*
G37*
G36*
X120650Y-1022603D02*
G01*
X110489Y-1031494D01*
X121310Y-1043787D01*
X125476Y-1047496D01*
X115214Y-1047242D01*
X50038Y-1047242D01*
X50038Y-1064514D01*
X142748Y-1064514D01*
X142748Y-1049782D01*
G37*
G36*
X192379Y-192278D02*
G01*
X192379Y-292303D01*
X292354Y-192278D01*
G37*
D10*
X192379Y-1807514D02*
G01*
X1807616Y-1807514D01*
X1807616Y-192278D01*
X192379Y-192278D01*
X192379Y-1807514D01*
X169519Y-292277D02*
G01*
X169519Y-169418D01*
X292379Y-169418D01*
M02*
