G04 Layer: BottomLayer*
G04 EasyEDA v6.5.51, 2025-11-13 20:27:25*
G04 8135d319d6174492bdc44f612489c6fc,9a5be75d700b4a6385dc1106f27949ae,10*
G04 Gerber Generator version 0.2*
G04 Scale: 100 percent, Rotated: No, Reflected: No *
G04 Dimensions in millimeters *
G04 leading zeros omitted , absolute positions ,4 integer and 5 decimal *
%FSLAX45Y45*%
%MOMM*%

%AMMACRO1*21,1,$1,$2,0,0,$3*%
%ADD10C,0.8000*%
%ADD11C,0.4000*%
%ADD12C,0.2200*%
%ADD13C,0.3000*%
%ADD14MACRO1,0.8X0.9X0.0000*%
%ADD15MACRO1,1.35X1.41X-90.0000*%
%ADD16C,0.0142*%
%ADD17MACRO1,0.864X0.8065X90.0000*%
%ADD18C,0.6200*%

%LPD*%
G36*
X101244Y-1974088D02*
G01*
X88747Y-1973122D01*
X78486Y-1970786D01*
X68630Y-1966975D01*
X59385Y-1961845D01*
X51003Y-1955444D01*
X43637Y-1947875D01*
X37388Y-1939391D01*
X32410Y-1930044D01*
X28803Y-1920138D01*
X26670Y-1909825D01*
X25908Y-1898751D01*
X25908Y-101244D01*
X26873Y-88747D01*
X29209Y-78486D01*
X33020Y-68630D01*
X38150Y-59385D01*
X44551Y-51003D01*
X52120Y-43637D01*
X60604Y-37388D01*
X69951Y-32410D01*
X79857Y-28803D01*
X90170Y-26670D01*
X101244Y-25908D01*
X931926Y-25908D01*
X935736Y-26670D01*
X939037Y-28803D01*
X941222Y-32054D01*
X942086Y-35915D01*
X941374Y-39776D01*
X939292Y-43078D01*
X936091Y-45313D01*
X924610Y-50495D01*
X919734Y-53035D01*
X907186Y-60655D01*
X902665Y-63754D01*
X891082Y-72796D01*
X886917Y-76504D01*
X876503Y-86918D01*
X872794Y-91084D01*
X863752Y-102666D01*
X860653Y-107187D01*
X853033Y-119735D01*
X850493Y-124612D01*
X844448Y-138074D01*
X842518Y-143154D01*
X838098Y-157226D01*
X836777Y-162610D01*
X834136Y-177088D01*
X833475Y-182575D01*
X832561Y-197307D01*
X832561Y-202692D01*
X833475Y-217424D01*
X834136Y-222910D01*
X836777Y-237388D01*
X838098Y-242773D01*
X842518Y-256844D01*
X844448Y-261924D01*
X850493Y-275386D01*
X853033Y-280263D01*
X860653Y-292811D01*
X863752Y-297332D01*
X872794Y-308914D01*
X876503Y-313080D01*
X886917Y-323494D01*
X891082Y-327202D01*
X902665Y-336245D01*
X907186Y-339344D01*
X919734Y-346964D01*
X924610Y-349504D01*
X931926Y-352806D01*
X935228Y-355193D01*
X937310Y-358698D01*
X937920Y-362712D01*
X936802Y-366623D01*
X934974Y-370332D01*
X932027Y-377799D01*
X929386Y-388823D01*
X928522Y-399999D01*
X929386Y-411175D01*
X932027Y-422097D01*
X936294Y-432460D01*
X942187Y-442010D01*
X949452Y-450545D01*
X957986Y-457809D01*
X967536Y-463702D01*
X977900Y-467969D01*
X988821Y-470611D01*
X999998Y-471474D01*
X1011174Y-470611D01*
X1022096Y-467969D01*
X1032459Y-463702D01*
X1042009Y-457809D01*
X1050544Y-450545D01*
X1057808Y-442010D01*
X1063701Y-432460D01*
X1067968Y-422097D01*
X1070610Y-411175D01*
X1071473Y-399999D01*
X1070610Y-388823D01*
X1067968Y-377799D01*
X1065022Y-370281D01*
X1063142Y-366522D01*
X1062126Y-362610D01*
X1062736Y-358597D01*
X1064818Y-355142D01*
X1068120Y-352755D01*
X1075385Y-349504D01*
X1080262Y-346964D01*
X1092809Y-339344D01*
X1097330Y-336245D01*
X1108913Y-327202D01*
X1113078Y-323494D01*
X1123492Y-313080D01*
X1127201Y-308914D01*
X1136243Y-297332D01*
X1139342Y-292811D01*
X1146962Y-280263D01*
X1149502Y-275386D01*
X1155547Y-261924D01*
X1157478Y-256844D01*
X1161897Y-242773D01*
X1163218Y-237388D01*
X1165860Y-222910D01*
X1166520Y-217424D01*
X1167434Y-202692D01*
X1167434Y-197307D01*
X1166520Y-182575D01*
X1165860Y-177088D01*
X1163218Y-162610D01*
X1161897Y-157226D01*
X1157478Y-143154D01*
X1155547Y-138074D01*
X1149502Y-124612D01*
X1146962Y-119735D01*
X1139342Y-107187D01*
X1136243Y-102666D01*
X1127201Y-91084D01*
X1123492Y-86918D01*
X1113078Y-76504D01*
X1108913Y-72796D01*
X1097330Y-63754D01*
X1092809Y-60655D01*
X1080262Y-53035D01*
X1075385Y-50495D01*
X1063904Y-45313D01*
X1060704Y-43078D01*
X1058621Y-39776D01*
X1057910Y-35915D01*
X1058773Y-32054D01*
X1060958Y-28803D01*
X1064260Y-26670D01*
X1068070Y-25908D01*
X1898751Y-25908D01*
X1911248Y-26873D01*
X1921510Y-29209D01*
X1931365Y-33020D01*
X1940610Y-38150D01*
X1948992Y-44551D01*
X1956358Y-52120D01*
X1962607Y-60604D01*
X1967585Y-69951D01*
X1971192Y-79857D01*
X1973325Y-90170D01*
X1974088Y-101244D01*
X1974088Y-1898751D01*
X1973122Y-1911248D01*
X1970786Y-1921510D01*
X1966975Y-1931365D01*
X1961845Y-1940610D01*
X1955444Y-1948992D01*
X1947875Y-1956358D01*
X1939391Y-1962607D01*
X1930044Y-1967585D01*
X1920138Y-1971192D01*
X1909825Y-1973325D01*
X1898751Y-1974088D01*
X1468069Y-1974088D01*
X1464259Y-1973325D01*
X1460957Y-1971192D01*
X1458772Y-1967941D01*
X1457909Y-1964080D01*
X1458620Y-1960219D01*
X1460703Y-1956917D01*
X1463903Y-1954682D01*
X1475384Y-1949500D01*
X1480261Y-1946960D01*
X1492808Y-1939340D01*
X1497330Y-1936242D01*
X1508912Y-1927199D01*
X1513078Y-1923491D01*
X1523492Y-1913077D01*
X1527200Y-1908911D01*
X1536242Y-1897329D01*
X1539341Y-1892807D01*
X1546961Y-1880260D01*
X1549501Y-1875383D01*
X1555546Y-1861921D01*
X1557477Y-1856841D01*
X1561896Y-1842770D01*
X1563217Y-1837385D01*
X1565859Y-1822907D01*
X1566519Y-1817420D01*
X1567434Y-1802688D01*
X1567434Y-1797304D01*
X1566519Y-1782572D01*
X1565859Y-1777085D01*
X1563217Y-1762607D01*
X1561896Y-1757222D01*
X1557477Y-1743151D01*
X1555546Y-1738071D01*
X1549501Y-1724609D01*
X1546961Y-1719732D01*
X1539341Y-1707184D01*
X1536242Y-1702663D01*
X1527200Y-1691081D01*
X1523492Y-1686915D01*
X1513078Y-1676501D01*
X1508912Y-1672793D01*
X1497330Y-1663750D01*
X1492808Y-1660652D01*
X1480261Y-1653032D01*
X1475384Y-1650492D01*
X1466697Y-1646580D01*
X1463548Y-1644345D01*
X1461414Y-1641093D01*
X1460703Y-1637283D01*
X1460754Y-1583588D01*
X1461719Y-1579270D01*
X1464462Y-1575765D01*
X1469237Y-1571802D01*
X1474266Y-1565656D01*
X1478026Y-1558696D01*
X1480312Y-1551076D01*
X1481175Y-1542694D01*
X1481175Y-1457299D01*
X1480312Y-1448917D01*
X1478026Y-1441297D01*
X1474266Y-1434338D01*
X1469237Y-1428191D01*
X1463141Y-1423162D01*
X1456131Y-1419402D01*
X1448562Y-1417116D01*
X1440129Y-1416304D01*
X1360474Y-1416304D01*
X1352092Y-1417116D01*
X1344523Y-1419402D01*
X1337513Y-1423162D01*
X1331468Y-1428140D01*
X1328420Y-1429867D01*
X1325016Y-1430426D01*
X1321562Y-1429867D01*
X1318564Y-1428140D01*
X1312468Y-1423162D01*
X1305458Y-1419402D01*
X1297889Y-1417116D01*
X1289507Y-1416304D01*
X1209852Y-1416304D01*
X1201470Y-1417116D01*
X1193850Y-1419402D01*
X1186891Y-1423162D01*
X1180744Y-1428191D01*
X1173429Y-1437081D01*
X1170381Y-1438859D01*
X1166876Y-1439468D01*
X920851Y-1439468D01*
X917194Y-1438808D01*
X914044Y-1436878D01*
X911758Y-1433880D01*
X910742Y-1430324D01*
X910183Y-1424584D01*
X907897Y-1417015D01*
X904138Y-1410004D01*
X899109Y-1403908D01*
X892962Y-1398879D01*
X886002Y-1395120D01*
X878382Y-1392834D01*
X870000Y-1391970D01*
X864412Y-1391970D01*
X860501Y-1391208D01*
X857199Y-1389024D01*
X855014Y-1385722D01*
X850392Y-1374546D01*
X849630Y-1370685D01*
X850392Y-1366774D01*
X852576Y-1363472D01*
X855878Y-1361287D01*
X859790Y-1360525D01*
X1094282Y-1360525D01*
X1100734Y-1360170D01*
X1115060Y-1358798D01*
X1121460Y-1357833D01*
X1135583Y-1355039D01*
X1141831Y-1353464D01*
X1155649Y-1349248D01*
X1161694Y-1347114D01*
X1175054Y-1341577D01*
X1180846Y-1338834D01*
X1193546Y-1332026D01*
X1199083Y-1328724D01*
X1211072Y-1320698D01*
X1216253Y-1316888D01*
X1227378Y-1307744D01*
X1232154Y-1303375D01*
X1267307Y-1268222D01*
X1274013Y-1259789D01*
X1287830Y-1239062D01*
X1292707Y-1229563D01*
X1302207Y-1206500D01*
X1304696Y-1198372D01*
X1307592Y-1183995D01*
X1309420Y-1179931D01*
X1319276Y-1171803D01*
X1324305Y-1165656D01*
X1328013Y-1158697D01*
X1330350Y-1151077D01*
X1331163Y-1142695D01*
X1331163Y-1057300D01*
X1330350Y-1048918D01*
X1328013Y-1041298D01*
X1324305Y-1034338D01*
X1319276Y-1028192D01*
X1314551Y-1024331D01*
X1311808Y-1020826D01*
X1310843Y-1016457D01*
X1310843Y-1008532D01*
X1311808Y-1004163D01*
X1314551Y-1000658D01*
X1319276Y-996797D01*
X1324305Y-990701D01*
X1328013Y-983691D01*
X1330350Y-976071D01*
X1331163Y-967689D01*
X1331163Y-882294D01*
X1330350Y-873912D01*
X1328013Y-866292D01*
X1324305Y-859332D01*
X1319276Y-853186D01*
X1314551Y-849325D01*
X1311808Y-845819D01*
X1310843Y-841502D01*
X1310843Y-833526D01*
X1311808Y-829157D01*
X1314551Y-825652D01*
X1319276Y-821791D01*
X1324305Y-815695D01*
X1328013Y-808685D01*
X1330350Y-801116D01*
X1331163Y-792683D01*
X1331163Y-707288D01*
X1330350Y-698906D01*
X1328013Y-691337D01*
X1324305Y-684326D01*
X1319276Y-678180D01*
X1314551Y-674319D01*
X1311808Y-670814D01*
X1310843Y-666496D01*
X1310843Y-658520D01*
X1311808Y-654151D01*
X1314551Y-650646D01*
X1319276Y-646785D01*
X1324305Y-640689D01*
X1328013Y-633679D01*
X1330350Y-626110D01*
X1331163Y-617677D01*
X1331163Y-532282D01*
X1330350Y-523900D01*
X1328013Y-516331D01*
X1324305Y-509320D01*
X1319276Y-503174D01*
X1313129Y-498144D01*
X1306118Y-494436D01*
X1298549Y-492099D01*
X1290167Y-491286D01*
X1210513Y-491286D01*
X1202131Y-492099D01*
X1194511Y-494436D01*
X1187500Y-498144D01*
X1181455Y-503123D01*
X1178407Y-504850D01*
X1175004Y-505459D01*
X1171600Y-504850D01*
X1168552Y-503123D01*
X1162456Y-498144D01*
X1155496Y-494436D01*
X1147876Y-492099D01*
X1139494Y-491286D01*
X1059840Y-491286D01*
X1051458Y-492099D01*
X1043889Y-494436D01*
X1036878Y-498144D01*
X1030732Y-503174D01*
X1025702Y-509320D01*
X1023162Y-514146D01*
X1020775Y-517042D01*
X1017574Y-518922D01*
X1013866Y-519480D01*
X1002842Y-519125D01*
X996137Y-517651D01*
X994257Y-516940D01*
X979830Y-509981D01*
X972210Y-507034D01*
X961186Y-504393D01*
X950010Y-503478D01*
X938834Y-504393D01*
X927862Y-507034D01*
X918260Y-510895D01*
X905814Y-516940D01*
X899363Y-518820D01*
X897229Y-519125D01*
X887272Y-519480D01*
X856132Y-519480D01*
X852525Y-518820D01*
X849426Y-516991D01*
X847140Y-514096D01*
X843635Y-507542D01*
X838606Y-501396D01*
X832459Y-496366D01*
X825449Y-492607D01*
X817880Y-490321D01*
X809498Y-489508D01*
X730504Y-489508D01*
X722071Y-490321D01*
X714502Y-492607D01*
X707491Y-496366D01*
X703427Y-498957D01*
X700024Y-499516D01*
X696569Y-498957D01*
X692505Y-496366D01*
X685495Y-492607D01*
X677926Y-490321D01*
X669493Y-489508D01*
X656336Y-489508D01*
X656336Y-546150D01*
X679297Y-546150D01*
X683209Y-546912D01*
X686511Y-549148D01*
X688695Y-552399D01*
X689457Y-556310D01*
X689457Y-593699D01*
X688695Y-597560D01*
X686511Y-600862D01*
X683209Y-603097D01*
X679297Y-603859D01*
X656336Y-603859D01*
X656336Y-721156D01*
X679297Y-721156D01*
X683209Y-721918D01*
X686511Y-724103D01*
X688695Y-727405D01*
X689457Y-731316D01*
X689457Y-768705D01*
X688695Y-772566D01*
X686511Y-775868D01*
X683209Y-778052D01*
X679297Y-778865D01*
X656336Y-778865D01*
X656336Y-896162D01*
X679348Y-896162D01*
X683209Y-896924D01*
X686511Y-899109D01*
X688695Y-902411D01*
X689508Y-906322D01*
X689508Y-943711D01*
X688695Y-947572D01*
X686511Y-950874D01*
X683209Y-953058D01*
X679348Y-953871D01*
X656336Y-953871D01*
X656336Y-1071168D01*
X679297Y-1071168D01*
X683209Y-1071930D01*
X686511Y-1074115D01*
X688695Y-1077417D01*
X689457Y-1081328D01*
X689457Y-1118666D01*
X688695Y-1122578D01*
X686511Y-1125880D01*
X683209Y-1128064D01*
X679297Y-1128826D01*
X656336Y-1128826D01*
X656336Y-1185519D01*
X669493Y-1185519D01*
X677926Y-1184656D01*
X685495Y-1182370D01*
X692505Y-1178661D01*
X696569Y-1176070D01*
X700024Y-1175461D01*
X703427Y-1176070D01*
X707491Y-1178661D01*
X714502Y-1182370D01*
X722071Y-1184656D01*
X730504Y-1185519D01*
X809498Y-1185519D01*
X817880Y-1184656D01*
X825449Y-1182370D01*
X832459Y-1178661D01*
X838606Y-1173581D01*
X843635Y-1167485D01*
X847140Y-1160881D01*
X849426Y-1158036D01*
X852525Y-1156157D01*
X856132Y-1155496D01*
X887628Y-1155496D01*
X897229Y-1155852D01*
X903935Y-1157376D01*
X905814Y-1158036D01*
X919987Y-1164894D01*
X927912Y-1167993D01*
X938834Y-1170584D01*
X950010Y-1171498D01*
X961186Y-1170584D01*
X972159Y-1167942D01*
X981760Y-1164082D01*
X994206Y-1158036D01*
X1000658Y-1156208D01*
X1002842Y-1155852D01*
X1013866Y-1155496D01*
X1017574Y-1156055D01*
X1020775Y-1157935D01*
X1023162Y-1160881D01*
X1025702Y-1165656D01*
X1030732Y-1171803D01*
X1036878Y-1176832D01*
X1043889Y-1180592D01*
X1051458Y-1182878D01*
X1059840Y-1183690D01*
X1139494Y-1183690D01*
X1147876Y-1182878D01*
X1159967Y-1179118D01*
X1164031Y-1179626D01*
X1167587Y-1181658D01*
X1170025Y-1184960D01*
X1170940Y-1188974D01*
X1170228Y-1192987D01*
X1167993Y-1196441D01*
X1148892Y-1215542D01*
X1141171Y-1221892D01*
X1133703Y-1226820D01*
X1125728Y-1230985D01*
X1117447Y-1234389D01*
X1108811Y-1236980D01*
X1100023Y-1238656D01*
X1091082Y-1239469D01*
X853440Y-1239469D01*
X849884Y-1238859D01*
X846734Y-1236980D01*
X843635Y-1232509D01*
X838606Y-1226413D01*
X832459Y-1221333D01*
X825449Y-1217625D01*
X817880Y-1215339D01*
X809498Y-1214475D01*
X730504Y-1214475D01*
X722071Y-1215339D01*
X714502Y-1217625D01*
X707491Y-1221333D01*
X703427Y-1223924D01*
X700024Y-1224534D01*
X696569Y-1223924D01*
X692505Y-1221333D01*
X685495Y-1217625D01*
X677926Y-1215339D01*
X669493Y-1214475D01*
X656336Y-1214475D01*
X656336Y-1271168D01*
X679297Y-1271168D01*
X683209Y-1271930D01*
X686511Y-1274114D01*
X688695Y-1277416D01*
X689457Y-1281328D01*
X689457Y-1318666D01*
X688695Y-1322578D01*
X686511Y-1325880D01*
X683209Y-1328064D01*
X679297Y-1328826D01*
X656336Y-1328826D01*
X656336Y-1395679D01*
X655574Y-1399540D01*
X653389Y-1402842D01*
X650087Y-1405077D01*
X646176Y-1405839D01*
X641604Y-1405839D01*
X641604Y-1459890D01*
X678840Y-1459890D01*
X682701Y-1460652D01*
X686003Y-1462887D01*
X688238Y-1466189D01*
X689000Y-1470050D01*
X689000Y-1529943D01*
X688238Y-1533804D01*
X686003Y-1537106D01*
X682701Y-1539341D01*
X678840Y-1540103D01*
X641604Y-1540103D01*
X641604Y-1608023D01*
X670001Y-1608023D01*
X678383Y-1607159D01*
X686003Y-1604873D01*
X696569Y-1598930D01*
X700024Y-1598371D01*
X703427Y-1598930D01*
X707034Y-1601114D01*
X713994Y-1604873D01*
X721614Y-1607159D01*
X729996Y-1608023D01*
X870000Y-1608023D01*
X878382Y-1607159D01*
X886002Y-1604873D01*
X892962Y-1601114D01*
X899109Y-1596085D01*
X904138Y-1589989D01*
X907897Y-1582978D01*
X910183Y-1575409D01*
X910742Y-1569669D01*
X911758Y-1566113D01*
X914044Y-1563116D01*
X917194Y-1561185D01*
X920851Y-1560525D01*
X1166876Y-1560525D01*
X1170381Y-1561134D01*
X1173429Y-1562912D01*
X1180744Y-1571802D01*
X1186891Y-1576832D01*
X1193850Y-1580591D01*
X1201470Y-1582877D01*
X1209852Y-1583690D01*
X1289507Y-1583690D01*
X1297889Y-1582877D01*
X1305458Y-1580591D01*
X1312468Y-1576832D01*
X1318564Y-1571853D01*
X1321562Y-1570126D01*
X1325016Y-1569567D01*
X1328420Y-1570126D01*
X1331468Y-1571853D01*
X1335989Y-1575612D01*
X1338732Y-1579118D01*
X1339748Y-1583436D01*
X1339697Y-1637131D01*
X1338935Y-1640941D01*
X1336852Y-1644192D01*
X1333703Y-1646428D01*
X1324610Y-1650492D01*
X1319733Y-1653032D01*
X1307185Y-1660652D01*
X1302664Y-1663750D01*
X1291082Y-1672793D01*
X1286916Y-1676501D01*
X1276502Y-1686915D01*
X1272794Y-1691081D01*
X1263751Y-1702663D01*
X1260652Y-1707184D01*
X1253032Y-1719732D01*
X1250492Y-1724609D01*
X1244447Y-1738071D01*
X1242517Y-1743151D01*
X1238097Y-1757222D01*
X1236776Y-1762607D01*
X1234135Y-1777085D01*
X1233474Y-1782572D01*
X1232560Y-1797304D01*
X1232560Y-1802688D01*
X1233474Y-1817420D01*
X1234135Y-1822907D01*
X1236776Y-1837385D01*
X1238097Y-1842770D01*
X1242517Y-1856841D01*
X1244447Y-1861921D01*
X1250492Y-1875383D01*
X1253032Y-1880260D01*
X1260652Y-1892807D01*
X1263751Y-1897329D01*
X1272794Y-1908911D01*
X1276502Y-1913077D01*
X1286916Y-1923491D01*
X1291082Y-1927199D01*
X1302664Y-1936242D01*
X1307185Y-1939340D01*
X1319733Y-1946960D01*
X1324610Y-1949500D01*
X1336090Y-1954682D01*
X1339291Y-1956917D01*
X1341374Y-1960219D01*
X1342085Y-1964080D01*
X1341221Y-1967941D01*
X1339037Y-1971192D01*
X1335735Y-1973325D01*
X1331925Y-1974088D01*
X668070Y-1974088D01*
X663600Y-1973325D01*
X659688Y-1974088D01*
X540308Y-1974088D01*
X536092Y-1973122D01*
X531926Y-1974088D01*
G37*

%LPC*%
G36*
X530148Y-1951989D02*
G01*
X530148Y-1869846D01*
X448005Y-1869846D01*
X450494Y-1875383D01*
X453034Y-1880260D01*
X460654Y-1892807D01*
X463753Y-1897329D01*
X472795Y-1908911D01*
X476504Y-1913077D01*
X486918Y-1923491D01*
X491083Y-1927199D01*
X502666Y-1936242D01*
X507187Y-1939340D01*
X519734Y-1946960D01*
X524611Y-1949500D01*
G37*
G36*
X669848Y-1951989D02*
G01*
X675386Y-1949500D01*
X680262Y-1946960D01*
X692810Y-1939340D01*
X697331Y-1936242D01*
X708914Y-1927199D01*
X713079Y-1923491D01*
X723493Y-1913077D01*
X727202Y-1908911D01*
X736244Y-1897329D01*
X739343Y-1892807D01*
X746963Y-1880260D01*
X749503Y-1875383D01*
X751992Y-1869846D01*
X669848Y-1869846D01*
G37*
G36*
X448005Y-1730146D02*
G01*
X530148Y-1730146D01*
X530148Y-1648002D01*
X524611Y-1650492D01*
X519734Y-1653032D01*
X507187Y-1660652D01*
X502666Y-1663750D01*
X491083Y-1672793D01*
X486918Y-1676501D01*
X476504Y-1686915D01*
X472795Y-1691081D01*
X463753Y-1702663D01*
X460654Y-1707184D01*
X453034Y-1719732D01*
X450494Y-1724609D01*
G37*
G36*
X669848Y-1730146D02*
G01*
X751992Y-1730146D01*
X749503Y-1724609D01*
X746963Y-1719732D01*
X739343Y-1707184D01*
X736244Y-1702663D01*
X727202Y-1691081D01*
X723493Y-1686915D01*
X713079Y-1676501D01*
X708914Y-1672793D01*
X697331Y-1663750D01*
X692810Y-1660652D01*
X680262Y-1653032D01*
X675386Y-1650492D01*
X669848Y-1648002D01*
G37*
G36*
X529996Y-1608023D02*
G01*
X558393Y-1608023D01*
X558393Y-1540103D01*
X489000Y-1540103D01*
X489000Y-1566976D01*
X489813Y-1575409D01*
X492099Y-1582978D01*
X495858Y-1589989D01*
X500888Y-1596085D01*
X507034Y-1601114D01*
X513994Y-1604873D01*
X521614Y-1607159D01*
G37*
G36*
X489000Y-1459890D02*
G01*
X558393Y-1459890D01*
X558393Y-1391361D01*
X555396Y-1391970D01*
X529996Y-1391970D01*
X521614Y-1392834D01*
X513994Y-1395120D01*
X507034Y-1398879D01*
X500888Y-1403908D01*
X495858Y-1410004D01*
X492099Y-1417015D01*
X489813Y-1424584D01*
X489000Y-1433017D01*
G37*
G36*
X562051Y-1374190D02*
G01*
X564692Y-1372463D01*
X568553Y-1371650D01*
X603656Y-1371650D01*
X603656Y-1328826D01*
X549503Y-1328826D01*
X549503Y-1344523D01*
X550316Y-1352905D01*
X552653Y-1360474D01*
X556361Y-1367485D01*
G37*
G36*
X549503Y-1271168D02*
G01*
X603656Y-1271168D01*
X603656Y-1214475D01*
X590499Y-1214475D01*
X582117Y-1215339D01*
X574548Y-1217625D01*
X567537Y-1221333D01*
X561390Y-1226413D01*
X556361Y-1232509D01*
X552653Y-1239520D01*
X550316Y-1247089D01*
X549503Y-1255522D01*
G37*
G36*
X590499Y-1185519D02*
G01*
X603656Y-1185519D01*
X603656Y-1128826D01*
X549503Y-1128826D01*
X549503Y-1144524D01*
X550316Y-1152906D01*
X552653Y-1160475D01*
X556361Y-1167485D01*
X561390Y-1173581D01*
X567537Y-1178661D01*
X574548Y-1182370D01*
X582117Y-1184656D01*
G37*
G36*
X549503Y-1071168D02*
G01*
X603656Y-1071168D01*
X603656Y-953871D01*
X549503Y-953871D01*
X549503Y-969518D01*
X550316Y-977900D01*
X552653Y-985469D01*
X556361Y-992479D01*
X561390Y-998626D01*
X568299Y-1004265D01*
X571042Y-1007821D01*
X572008Y-1012901D01*
X571042Y-1017219D01*
X568299Y-1020724D01*
X561390Y-1026414D01*
X556361Y-1032510D01*
X552653Y-1039520D01*
X550316Y-1047089D01*
X549503Y-1055522D01*
G37*
G36*
X549503Y-896162D02*
G01*
X603656Y-896162D01*
X603656Y-778865D01*
X549503Y-778865D01*
X549503Y-794512D01*
X550316Y-802894D01*
X552653Y-810463D01*
X556361Y-817473D01*
X561390Y-823620D01*
X568299Y-829259D01*
X571042Y-832764D01*
X572008Y-837844D01*
X571042Y-842213D01*
X568299Y-845718D01*
X561390Y-851408D01*
X556361Y-857503D01*
X552653Y-864514D01*
X550316Y-872083D01*
X549503Y-880516D01*
G37*
G36*
X549503Y-721156D02*
G01*
X603656Y-721156D01*
X603656Y-603859D01*
X549503Y-603859D01*
X549503Y-619506D01*
X550316Y-627888D01*
X552653Y-635508D01*
X556361Y-642467D01*
X561390Y-648614D01*
X568299Y-654253D01*
X571042Y-657809D01*
X572008Y-662889D01*
X571042Y-667207D01*
X568299Y-670712D01*
X561390Y-676402D01*
X556361Y-682498D01*
X552653Y-689508D01*
X550316Y-697128D01*
X549503Y-705510D01*
G37*
G36*
X549503Y-546150D02*
G01*
X603656Y-546150D01*
X603656Y-489508D01*
X590499Y-489508D01*
X582117Y-490321D01*
X574548Y-492607D01*
X567537Y-496366D01*
X561390Y-501396D01*
X556361Y-507542D01*
X552653Y-514502D01*
X550316Y-522122D01*
X549503Y-530504D01*
G37*

%LPD*%
G36*
X988974Y-337972D02*
G01*
X988720Y-345795D01*
X987958Y-352247D01*
X986739Y-357632D01*
X985062Y-362356D01*
X983030Y-366674D01*
X975156Y-380542D01*
X972108Y-386486D01*
X999998Y-415493D01*
X1027887Y-386486D01*
X1024839Y-380542D01*
X1016965Y-366674D01*
X1014933Y-362356D01*
X1013256Y-357632D01*
X1012037Y-352247D01*
X1011275Y-345795D01*
X1010970Y-337972D01*
G37*
G36*
X936498Y-1072083D02*
G01*
X925931Y-1077264D01*
X917041Y-1081125D01*
X912571Y-1082497D01*
X907694Y-1083614D01*
X902157Y-1084376D01*
X895654Y-1084834D01*
X887984Y-1084986D01*
X887984Y-1115009D01*
X895654Y-1115161D01*
X902157Y-1115618D01*
X907694Y-1116380D01*
X912571Y-1117498D01*
X917041Y-1118870D01*
X925931Y-1122730D01*
X936498Y-1127912D01*
X965504Y-1099972D01*
G37*
G36*
X963523Y-1072083D02*
G01*
X934516Y-1099972D01*
X963523Y-1127912D01*
X974090Y-1122730D01*
X982980Y-1118870D01*
X987450Y-1117498D01*
X992327Y-1116380D01*
X997864Y-1115618D01*
X1004366Y-1115161D01*
X1011986Y-1115009D01*
X1011986Y-1084986D01*
X1004366Y-1084834D01*
X997864Y-1084376D01*
X992327Y-1083614D01*
X987450Y-1082497D01*
X982980Y-1081125D01*
X974090Y-1077264D01*
G37*
G36*
X963523Y-897077D02*
G01*
X934516Y-924966D01*
X963523Y-952906D01*
X978611Y-945642D01*
X982980Y-943914D01*
X987450Y-942492D01*
X992327Y-941374D01*
X997864Y-940612D01*
X1004366Y-940155D01*
X1011986Y-940003D01*
X1011986Y-909980D01*
X1004366Y-909828D01*
X997864Y-909370D01*
X992327Y-908608D01*
X987450Y-907542D01*
X982980Y-906119D01*
X974090Y-902258D01*
G37*
G36*
X936498Y-897077D02*
G01*
X925931Y-902258D01*
X917041Y-906119D01*
X912571Y-907542D01*
X907694Y-908608D01*
X902157Y-909370D01*
X895654Y-909828D01*
X887984Y-909980D01*
X887984Y-940003D01*
X895654Y-940155D01*
X902157Y-940612D01*
X907694Y-941374D01*
X912571Y-942492D01*
X917041Y-943914D01*
X921410Y-945642D01*
X936498Y-952906D01*
X965504Y-924966D01*
G37*
G36*
X936498Y-722122D02*
G01*
X921410Y-729386D01*
X917041Y-731113D01*
X912571Y-732536D01*
X907694Y-733602D01*
X902157Y-734364D01*
X895705Y-734872D01*
X887984Y-734974D01*
X887984Y-764997D01*
X895654Y-765149D01*
X902157Y-765606D01*
X907694Y-766368D01*
X912571Y-767486D01*
X917041Y-768908D01*
X921410Y-770636D01*
X936498Y-777900D01*
X965504Y-750011D01*
G37*
G36*
X963523Y-722122D02*
G01*
X934516Y-750011D01*
X963523Y-777900D01*
X978611Y-770636D01*
X982980Y-768908D01*
X987450Y-767486D01*
X992327Y-766368D01*
X997864Y-765606D01*
X1004366Y-765149D01*
X1011986Y-764997D01*
X1011986Y-734974D01*
X1004316Y-734872D01*
X997864Y-734364D01*
X992327Y-733602D01*
X987450Y-732536D01*
X982980Y-731113D01*
X978611Y-729386D01*
G37*
G36*
X963523Y-547065D02*
G01*
X934516Y-574954D01*
X963523Y-602894D01*
X978611Y-595630D01*
X982980Y-593902D01*
X987450Y-592480D01*
X992327Y-591362D01*
X997864Y-590600D01*
X1004316Y-590143D01*
X1011986Y-589991D01*
X1011986Y-560019D01*
X1004366Y-559866D01*
X997864Y-559409D01*
X992327Y-558596D01*
X987450Y-557530D01*
X982980Y-556107D01*
X978611Y-554380D01*
G37*
G36*
X936498Y-547065D02*
G01*
X925931Y-552246D01*
X917041Y-556107D01*
X912571Y-557530D01*
X907694Y-558596D01*
X902157Y-559358D01*
X895654Y-559866D01*
X887984Y-560019D01*
X887984Y-589991D01*
X895705Y-590143D01*
X902157Y-590600D01*
X907694Y-591362D01*
X912571Y-592480D01*
X917041Y-593902D01*
X921410Y-595630D01*
X936498Y-602894D01*
X965504Y-574954D01*
G37*
D10*
X599998Y-1499996D02*
G01*
X599998Y-1799996D01*
D11*
X1400047Y-1800097D02*
G01*
X1400302Y-1499870D01*
D10*
X629996Y-1299997D02*
G01*
X629996Y-1358973D01*
X622200Y-1377795D01*
X607794Y-1392201D01*
X599998Y-1411023D01*
X599998Y-1499996D01*
D11*
X799998Y-1459943D02*
G01*
X799998Y-1411023D01*
X792203Y-1392201D01*
X777796Y-1377795D01*
X770001Y-1358973D01*
X770001Y-1328036D01*
D12*
X999997Y-399999D02*
G01*
X999997Y-199999D01*
D13*
X770001Y-1099997D02*
G01*
X949998Y-1099997D01*
X949998Y-1099997D02*
G01*
X1099662Y-1099997D01*
X1099665Y-924999D02*
G01*
X949998Y-924999D01*
X949998Y-924999D02*
G01*
X770003Y-924999D01*
X770001Y-749998D02*
G01*
X949998Y-749998D01*
X949998Y-749998D02*
G01*
X1099662Y-749998D01*
X1099662Y-575000D02*
G01*
X950008Y-575000D01*
X949998Y-574989D02*
G01*
X770001Y-575000D01*
D11*
X799998Y-1459943D02*
G01*
X807610Y-1478320D01*
X821674Y-1492384D01*
X840051Y-1499996D01*
X1249662Y-1499996D01*
X1250335Y-749998D02*
G01*
X1250335Y-575000D01*
X1250337Y-924999D02*
G01*
X1250335Y-749998D01*
X1250335Y-1099997D02*
G01*
X1250337Y-924999D01*
X1250335Y-1099997D02*
G01*
X1250335Y-1161676D01*
X1245712Y-1184920D01*
X1236644Y-1206812D01*
X1223477Y-1226517D01*
X1189205Y-1260789D01*
X1177670Y-1270256D01*
X1165263Y-1278547D01*
X1152103Y-1285580D01*
X1138316Y-1291292D01*
X1124036Y-1295623D01*
X1109398Y-1298534D01*
X1094549Y-1299997D01*
X798040Y-1299997D01*
X785174Y-1305326D01*
X775329Y-1315171D01*
X770001Y-1328036D01*
D10*
X629996Y-1099997D02*
G01*
X629996Y-1299997D01*
X629998Y-924999D02*
G01*
X629996Y-1099997D01*
X629996Y-749998D02*
G01*
X629998Y-924999D01*
X629996Y-749998D02*
G01*
X629996Y-575000D01*
D14*
G01*
X769998Y-575000D03*
G01*
X629998Y-575000D03*
G01*
X769998Y-749998D03*
G01*
X629998Y-749998D03*
G01*
X770001Y-924999D03*
G01*
X630001Y-924999D03*
G01*
X769998Y-1099997D03*
G01*
X629998Y-1099997D03*
G36*
X726998Y-1799996D02*
G01*
X726084Y-1784680D01*
X723315Y-1769592D01*
X718743Y-1754962D01*
X712444Y-1740966D01*
X704519Y-1727860D01*
X695070Y-1715770D01*
X684225Y-1704924D01*
X672134Y-1695475D01*
X659028Y-1687550D01*
X645032Y-1681251D01*
X630402Y-1676679D01*
X615314Y-1673910D01*
X599998Y-1672996D01*
X599998Y-1672996D01*
X584682Y-1673910D01*
X569595Y-1676679D01*
X554964Y-1681251D01*
X540969Y-1687550D01*
X527862Y-1695475D01*
X515772Y-1704924D01*
X504926Y-1715770D01*
X495477Y-1727860D01*
X487553Y-1740966D01*
X481253Y-1754962D01*
X476681Y-1769592D01*
X473913Y-1784680D01*
X472998Y-1799996D01*
X472998Y-1799996D01*
X473913Y-1815312D01*
X476681Y-1830400D01*
X481253Y-1845030D01*
X487553Y-1859026D01*
X495477Y-1872132D01*
X504926Y-1884222D01*
X515772Y-1895068D01*
X527862Y-1904517D01*
X540969Y-1912442D01*
X554964Y-1918741D01*
X569595Y-1923313D01*
X584682Y-1926081D01*
X599998Y-1926996D01*
X599998Y-1926996D01*
X615314Y-1926081D01*
X630402Y-1923313D01*
X645032Y-1918741D01*
X659028Y-1912442D01*
X672134Y-1904517D01*
X684225Y-1895068D01*
X695070Y-1884222D01*
X704519Y-1872132D01*
X712444Y-1859026D01*
X718743Y-1845030D01*
X723315Y-1830400D01*
X726084Y-1815312D01*
X726998Y-1799996D01*
G37*
G36*
X1526997Y-1799996D02*
G01*
X1526082Y-1784680D01*
X1523314Y-1769592D01*
X1518742Y-1754962D01*
X1512443Y-1740966D01*
X1504518Y-1727860D01*
X1495069Y-1715770D01*
X1484223Y-1704924D01*
X1472133Y-1695475D01*
X1459026Y-1687550D01*
X1445031Y-1681251D01*
X1430401Y-1676679D01*
X1415313Y-1673910D01*
X1399997Y-1672996D01*
X1399997Y-1672996D01*
X1384680Y-1673910D01*
X1369593Y-1676679D01*
X1354962Y-1681251D01*
X1340967Y-1687550D01*
X1327861Y-1695475D01*
X1315770Y-1704924D01*
X1304925Y-1715770D01*
X1295476Y-1727860D01*
X1287551Y-1740966D01*
X1281252Y-1754962D01*
X1276680Y-1769592D01*
X1273911Y-1784680D01*
X1272997Y-1799996D01*
X1272997Y-1799996D01*
X1273911Y-1815312D01*
X1276680Y-1830400D01*
X1281252Y-1845030D01*
X1287551Y-1859026D01*
X1295476Y-1872132D01*
X1304925Y-1884222D01*
X1315770Y-1895068D01*
X1327861Y-1904517D01*
X1340967Y-1912442D01*
X1354962Y-1918741D01*
X1369593Y-1923313D01*
X1384680Y-1926081D01*
X1399997Y-1926996D01*
X1399997Y-1926996D01*
X1415313Y-1926081D01*
X1430401Y-1923313D01*
X1445031Y-1918741D01*
X1459026Y-1912442D01*
X1472133Y-1904517D01*
X1484223Y-1895068D01*
X1495069Y-1884222D01*
X1504518Y-1872132D01*
X1512443Y-1859026D01*
X1518742Y-1845030D01*
X1523314Y-1830400D01*
X1526082Y-1815312D01*
X1526997Y-1799996D01*
G37*
D15*
G01*
X800000Y-1499997D03*
G01*
X599996Y-1499997D03*
D14*
G01*
X769998Y-1299997D03*
G01*
X629998Y-1299997D03*
D17*
G01*
X1099673Y-575000D03*
G01*
X1250323Y-575000D03*
G01*
X1099673Y-749998D03*
G01*
X1250323Y-749998D03*
G01*
X1099676Y-924999D03*
G01*
X1250326Y-924999D03*
G01*
X1099673Y-1099997D03*
G01*
X1250323Y-1099997D03*
G36*
X1126997Y-199999D02*
G01*
X1126083Y-184683D01*
X1123314Y-169595D01*
X1118743Y-154965D01*
X1112443Y-140970D01*
X1104519Y-127863D01*
X1095070Y-115773D01*
X1084224Y-104927D01*
X1072134Y-95478D01*
X1059027Y-87553D01*
X1045032Y-81254D01*
X1030401Y-76682D01*
X1015314Y-73913D01*
X999997Y-72999D01*
X999997Y-72999D01*
X984681Y-73913D01*
X969594Y-76682D01*
X954963Y-81254D01*
X940968Y-87553D01*
X927862Y-95478D01*
X915771Y-104927D01*
X904925Y-115773D01*
X895477Y-127863D01*
X887552Y-140970D01*
X881253Y-154965D01*
X876680Y-169595D01*
X873912Y-184683D01*
X872997Y-199999D01*
X872997Y-199999D01*
X873912Y-215315D01*
X876680Y-230403D01*
X881253Y-245033D01*
X887552Y-259029D01*
X895477Y-272135D01*
X904925Y-284226D01*
X915771Y-295071D01*
X927862Y-304520D01*
X940968Y-312445D01*
X954963Y-318744D01*
X969594Y-323316D01*
X984681Y-326085D01*
X999997Y-326999D01*
X999997Y-326999D01*
X1015314Y-326085D01*
X1030401Y-323316D01*
X1045032Y-318744D01*
X1059027Y-312445D01*
X1072134Y-304520D01*
X1084224Y-295071D01*
X1095070Y-284226D01*
X1104519Y-272135D01*
X1112443Y-259029D01*
X1118743Y-245033D01*
X1123314Y-230403D01*
X1126083Y-215315D01*
X1126997Y-199999D01*
G37*
G01*
X1249673Y-1499997D03*
G01*
X1400323Y-1499997D03*
D18*
G01*
X950010Y-1099997D03*
G01*
X950010Y-924991D03*
G01*
X950010Y-750011D03*
G01*
X950010Y-574979D03*
G01*
X999997Y-399999D03*
G01*
X99999Y-99999D03*
G01*
X99999Y-299999D03*
G01*
X99999Y-499998D03*
G01*
X99999Y-699998D03*
G01*
X99999Y-899998D03*
G01*
X99999Y-1099997D03*
G01*
X99999Y-1299997D03*
G01*
X99999Y-1499996D03*
G01*
X99999Y-1699996D03*
G01*
X1899996Y-99999D03*
G01*
X1899996Y-299999D03*
G01*
X1899996Y-1499996D03*
G01*
X1899996Y-1699996D03*
G01*
X1399997Y-1374978D03*
G01*
X450011Y-1024991D03*
G01*
X450011Y-475005D03*
G01*
X449935Y-1399971D03*
G01*
X1399997Y-1024991D03*
G01*
X1399997Y-650011D03*
M02*
