G04 Layer: BottomSolderMaskLayer*
G04 EasyEDA v6.5.51, 2025-11-13 20:27:25*
G04 8135d319d6174492bdc44f612489c6fc,9a5be75d700b4a6385dc1106f27949ae,10*
G04 Gerber Generator version 0.2*
G04 Scale: 100 percent, Rotated: No, Reflected: No *
G04 Dimensions in millimeters *
G04 leading zeros omitted , absolute positions ,4 integer and 5 decimal *
%FSLAX45Y45*%
%MOMM*%

%AMMACRO1*4,1,8,-0.4211,-0.5008,-0.4508,-0.471,-0.4508,0.4711,-0.4211,0.5008,0.421,0.5008,0.4508,0.4711,0.4508,-0.471,0.421,-0.5008,-0.4211,-0.5008,0*%
%AMMACRO2*4,1,8,-0.7261,-0.7258,-0.7558,-0.696,-0.7558,0.6961,-0.7261,0.7258,0.726,0.7258,0.7558,0.6961,0.7558,-0.696,0.726,-0.7258,-0.7261,-0.7258,0*%
%AMMACRO3*4,1,8,-0.4243,-0.4828,-0.454,-0.453,-0.454,0.4531,-0.4243,0.4828,0.4243,0.4828,0.454,0.4531,0.454,-0.453,0.4243,-0.4828,-0.4243,-0.4828,0*%
%ADD10MACRO1*%
%ADD11MACRO2*%
%ADD12MACRO3*%
%ADD13C,0.0109*%

%LPD*%
D10*
G01*
X769998Y-575000D03*
G01*
X629998Y-575000D03*
G01*
X769998Y-749998D03*
G01*
X629998Y-749998D03*
G01*
X770001Y-924999D03*
G01*
X630001Y-924999D03*
G01*
X769998Y-1099997D03*
G01*
X629998Y-1099997D03*
G36*
X599696Y-1932066D02*
G01*
X584380Y-1931151D01*
X583765Y-1931078D01*
X568678Y-1928309D01*
X568078Y-1928162D01*
X553448Y-1923590D01*
X552879Y-1923374D01*
X538883Y-1917075D01*
X538340Y-1916788D01*
X525233Y-1908863D01*
X524733Y-1908520D01*
X512643Y-1899071D01*
X512180Y-1898660D01*
X501335Y-1887814D01*
X500923Y-1887352D01*
X491474Y-1875261D01*
X491131Y-1874761D01*
X483207Y-1861654D01*
X482920Y-1861111D01*
X476620Y-1847115D01*
X476404Y-1846546D01*
X471832Y-1831916D01*
X471685Y-1831317D01*
X468917Y-1816229D01*
X468843Y-1815614D01*
X467928Y-1800298D01*
X467928Y-1799694D01*
X468843Y-1784377D01*
X468917Y-1783763D01*
X471685Y-1768675D01*
X471832Y-1768076D01*
X476404Y-1753445D01*
X476620Y-1752876D01*
X482920Y-1738881D01*
X483207Y-1738337D01*
X491131Y-1725231D01*
X491474Y-1724731D01*
X500923Y-1712640D01*
X501335Y-1712178D01*
X512180Y-1701332D01*
X512643Y-1700921D01*
X524733Y-1691472D01*
X525233Y-1691129D01*
X538340Y-1683204D01*
X538883Y-1682917D01*
X552879Y-1676618D01*
X553448Y-1676402D01*
X568078Y-1671830D01*
X568678Y-1671683D01*
X583765Y-1668914D01*
X584380Y-1668840D01*
X599696Y-1667926D01*
X600301Y-1667926D01*
X615617Y-1668840D01*
X616231Y-1668914D01*
X631319Y-1671683D01*
X631918Y-1671830D01*
X646549Y-1676402D01*
X647118Y-1676618D01*
X661113Y-1682917D01*
X661657Y-1683204D01*
X674763Y-1691129D01*
X675264Y-1691472D01*
X687354Y-1700921D01*
X687816Y-1701332D01*
X698662Y-1712178D01*
X699074Y-1712640D01*
X708522Y-1724731D01*
X708865Y-1725231D01*
X716790Y-1738337D01*
X717077Y-1738881D01*
X723376Y-1752876D01*
X723592Y-1753445D01*
X728164Y-1768076D01*
X728311Y-1768675D01*
X731080Y-1783763D01*
X731154Y-1784377D01*
X732068Y-1799694D01*
X732068Y-1800298D01*
X731154Y-1815614D01*
X731080Y-1816229D01*
X728311Y-1831317D01*
X728164Y-1831916D01*
X723592Y-1846546D01*
X723376Y-1847115D01*
X717077Y-1861111D01*
X716790Y-1861654D01*
X708865Y-1874761D01*
X708522Y-1875261D01*
X699074Y-1887352D01*
X698662Y-1887814D01*
X687816Y-1898660D01*
X687354Y-1899071D01*
X675264Y-1908520D01*
X674763Y-1908863D01*
X661657Y-1916788D01*
X661113Y-1917075D01*
X647118Y-1923374D01*
X646549Y-1923590D01*
X631918Y-1928162D01*
X631319Y-1928309D01*
X616231Y-1931078D01*
X615617Y-1931151D01*
X600301Y-1932066D01*
G37*
G36*
X1399694Y-1932066D02*
G01*
X1384378Y-1931151D01*
X1383764Y-1931078D01*
X1368676Y-1928309D01*
X1368077Y-1928162D01*
X1353446Y-1923590D01*
X1352877Y-1923374D01*
X1338882Y-1917075D01*
X1338338Y-1916788D01*
X1325232Y-1908863D01*
X1324731Y-1908520D01*
X1312641Y-1899071D01*
X1312179Y-1898660D01*
X1301333Y-1887814D01*
X1300921Y-1887352D01*
X1291473Y-1875261D01*
X1291130Y-1874761D01*
X1283205Y-1861654D01*
X1282918Y-1861111D01*
X1276619Y-1847115D01*
X1276403Y-1846546D01*
X1271831Y-1831916D01*
X1271684Y-1831317D01*
X1268915Y-1816229D01*
X1268841Y-1815614D01*
X1267927Y-1800298D01*
X1267927Y-1799694D01*
X1268841Y-1784377D01*
X1268915Y-1783763D01*
X1271684Y-1768675D01*
X1271831Y-1768076D01*
X1276403Y-1753445D01*
X1276619Y-1752876D01*
X1282918Y-1738881D01*
X1283205Y-1738337D01*
X1291130Y-1725231D01*
X1291473Y-1724731D01*
X1300921Y-1712640D01*
X1301333Y-1712178D01*
X1312179Y-1701332D01*
X1312641Y-1700921D01*
X1324731Y-1691472D01*
X1325232Y-1691129D01*
X1338338Y-1683204D01*
X1338882Y-1682917D01*
X1352877Y-1676618D01*
X1353446Y-1676402D01*
X1368077Y-1671830D01*
X1368676Y-1671683D01*
X1383764Y-1668914D01*
X1384378Y-1668840D01*
X1399694Y-1667926D01*
X1400299Y-1667926D01*
X1415615Y-1668840D01*
X1416230Y-1668914D01*
X1431317Y-1671683D01*
X1431917Y-1671830D01*
X1446547Y-1676402D01*
X1447116Y-1676618D01*
X1461112Y-1682917D01*
X1461655Y-1683204D01*
X1474762Y-1691129D01*
X1475262Y-1691472D01*
X1487352Y-1700921D01*
X1487815Y-1701332D01*
X1498660Y-1712178D01*
X1499072Y-1712640D01*
X1508521Y-1724731D01*
X1508864Y-1725231D01*
X1516788Y-1738337D01*
X1517075Y-1738881D01*
X1523375Y-1752876D01*
X1523591Y-1753445D01*
X1528163Y-1768076D01*
X1528310Y-1768675D01*
X1531078Y-1783763D01*
X1531152Y-1784377D01*
X1532067Y-1799694D01*
X1532067Y-1800298D01*
X1531152Y-1815614D01*
X1531078Y-1816229D01*
X1528310Y-1831317D01*
X1528163Y-1831916D01*
X1523591Y-1846546D01*
X1523375Y-1847115D01*
X1517075Y-1861111D01*
X1516788Y-1861654D01*
X1508864Y-1874761D01*
X1508521Y-1875261D01*
X1499072Y-1887352D01*
X1498660Y-1887814D01*
X1487815Y-1898660D01*
X1487352Y-1899071D01*
X1475262Y-1908520D01*
X1474762Y-1908863D01*
X1461655Y-1916788D01*
X1461112Y-1917075D01*
X1447116Y-1923374D01*
X1446547Y-1923590D01*
X1431917Y-1928162D01*
X1431317Y-1928309D01*
X1416230Y-1931078D01*
X1415615Y-1931151D01*
X1400299Y-1932066D01*
G37*
D11*
G01*
X800000Y-1499997D03*
G01*
X599996Y-1499997D03*
D10*
G01*
X769998Y-1299997D03*
G01*
X629998Y-1299997D03*
D12*
G01*
X1099673Y-575000D03*
G01*
X1250323Y-575000D03*
G01*
X1099673Y-749998D03*
G01*
X1250323Y-749998D03*
G01*
X1099676Y-924999D03*
G01*
X1250326Y-924999D03*
G01*
X1099673Y-1099997D03*
G01*
X1250323Y-1099997D03*
G36*
X999695Y-332069D02*
G01*
X984379Y-331155D01*
X983764Y-331081D01*
X968677Y-328312D01*
X968077Y-328165D01*
X953447Y-323593D01*
X952878Y-323377D01*
X938883Y-317078D01*
X938339Y-316791D01*
X925233Y-308866D01*
X924732Y-308523D01*
X912642Y-299074D01*
X912180Y-298663D01*
X901334Y-287817D01*
X900922Y-287355D01*
X891473Y-275264D01*
X891131Y-274764D01*
X883206Y-261658D01*
X882919Y-261114D01*
X876620Y-247119D01*
X876404Y-246550D01*
X871832Y-231919D01*
X871684Y-231320D01*
X868916Y-216232D01*
X868842Y-215618D01*
X867928Y-200301D01*
X867928Y-199697D01*
X868842Y-184381D01*
X868916Y-183766D01*
X871684Y-168678D01*
X871832Y-168079D01*
X876404Y-153449D01*
X876620Y-152880D01*
X882919Y-138884D01*
X883206Y-138341D01*
X891131Y-125234D01*
X891473Y-124734D01*
X900922Y-112643D01*
X901334Y-112181D01*
X912180Y-101335D01*
X912642Y-100924D01*
X924732Y-91475D01*
X925233Y-91132D01*
X938339Y-83207D01*
X938883Y-82920D01*
X952878Y-76621D01*
X953447Y-76405D01*
X968077Y-71833D01*
X968677Y-71686D01*
X983764Y-68917D01*
X984379Y-68844D01*
X999695Y-67929D01*
X1000300Y-67929D01*
X1015616Y-68844D01*
X1016231Y-68917D01*
X1031318Y-71686D01*
X1031918Y-71833D01*
X1046548Y-76405D01*
X1047117Y-76621D01*
X1061112Y-82920D01*
X1061656Y-83207D01*
X1074762Y-91132D01*
X1075263Y-91475D01*
X1087353Y-100924D01*
X1087815Y-101335D01*
X1098661Y-112181D01*
X1099073Y-112643D01*
X1108522Y-124734D01*
X1108864Y-125234D01*
X1116789Y-138341D01*
X1117076Y-138884D01*
X1123375Y-152880D01*
X1123591Y-153449D01*
X1128163Y-168079D01*
X1128311Y-168678D01*
X1131079Y-183766D01*
X1131153Y-184381D01*
X1132067Y-199697D01*
X1132067Y-200301D01*
X1131153Y-215618D01*
X1131079Y-216232D01*
X1128311Y-231320D01*
X1128163Y-231919D01*
X1123591Y-246550D01*
X1123375Y-247119D01*
X1117076Y-261114D01*
X1116789Y-261658D01*
X1108864Y-274764D01*
X1108522Y-275264D01*
X1099073Y-287355D01*
X1098661Y-287817D01*
X1087815Y-298663D01*
X1087353Y-299074D01*
X1075263Y-308523D01*
X1074762Y-308866D01*
X1061656Y-316791D01*
X1061112Y-317078D01*
X1047117Y-323377D01*
X1046548Y-323593D01*
X1031918Y-328165D01*
X1031318Y-328312D01*
X1016231Y-331081D01*
X1015616Y-331155D01*
X1000300Y-332069D01*
G37*
G01*
X1249673Y-1499997D03*
G01*
X1400323Y-1499997D03*
M02*
