G04 Layer: TopLayer*
G04 EasyEDA v6.5.51, 2025-11-13 20:27:25*
G04 8135d319d6174492bdc44f612489c6fc,9a5be75d700b4a6385dc1106f27949ae,10*
G04 Gerber Generator version 0.2*
G04 Scale: 100 percent, Rotated: No, Reflected: No *
G04 Dimensions in millimeters *
G04 leading zeros omitted , absolute positions ,4 integer and 5 decimal *
%FSLAX45Y45*%
%MOMM*%

%ADD10C,0.2200*%
%ADD11C,0.5250*%
%ADD12C,0.6200*%
%ADD13C,0.0130*%

%LPD*%
G36*
X101244Y-1974088D02*
G01*
X88747Y-1973122D01*
X78486Y-1970786D01*
X68630Y-1966975D01*
X59385Y-1961845D01*
X51003Y-1955444D01*
X43637Y-1947875D01*
X37388Y-1939391D01*
X32410Y-1930044D01*
X28803Y-1920138D01*
X26670Y-1909825D01*
X25908Y-1898751D01*
X25908Y-101244D01*
X26873Y-88747D01*
X29209Y-78486D01*
X33020Y-68630D01*
X38150Y-59385D01*
X44551Y-51003D01*
X52120Y-43637D01*
X60604Y-37388D01*
X69951Y-32410D01*
X79857Y-28803D01*
X90170Y-26670D01*
X101244Y-25908D01*
X1898751Y-25908D01*
X1911248Y-26873D01*
X1921510Y-29209D01*
X1931365Y-33020D01*
X1940610Y-38150D01*
X1948992Y-44551D01*
X1956358Y-52120D01*
X1962607Y-60604D01*
X1967585Y-69951D01*
X1971192Y-79857D01*
X1973325Y-90170D01*
X1974088Y-101244D01*
X1974088Y-1898751D01*
X1973122Y-1911248D01*
X1970786Y-1921510D01*
X1966975Y-1931365D01*
X1961845Y-1940610D01*
X1955444Y-1948992D01*
X1947875Y-1956358D01*
X1939391Y-1962607D01*
X1930044Y-1967585D01*
X1920138Y-1971192D01*
X1909825Y-1973325D01*
X1898751Y-1974088D01*
G37*

%LPC*%
G36*
X342798Y-1722069D02*
G01*
X353517Y-1721612D01*
X364083Y-1719478D01*
X374091Y-1715668D01*
X383387Y-1710334D01*
X387807Y-1707489D01*
X391210Y-1706880D01*
X822858Y-1706880D01*
X825906Y-1707337D01*
X828649Y-1708708D01*
X835152Y-1713179D01*
X844854Y-1717802D01*
X855167Y-1720748D01*
X865835Y-1722069D01*
X876553Y-1721612D01*
X887069Y-1719478D01*
X897077Y-1715668D01*
X906424Y-1710334D01*
X914704Y-1703527D01*
X921816Y-1695500D01*
X927557Y-1686407D01*
X931773Y-1676501D01*
X934364Y-1666087D01*
X935228Y-1655419D01*
X934364Y-1644700D01*
X931773Y-1634286D01*
X927557Y-1624380D01*
X921816Y-1615287D01*
X914704Y-1607261D01*
X906424Y-1600504D01*
X897077Y-1595120D01*
X887069Y-1591310D01*
X876553Y-1589176D01*
X865835Y-1588719D01*
X855167Y-1590040D01*
X844854Y-1592986D01*
X835152Y-1597609D01*
X828649Y-1602079D01*
X825906Y-1603451D01*
X822858Y-1603908D01*
X773480Y-1603908D01*
X769213Y-1602943D01*
X765708Y-1600250D01*
X763676Y-1596339D01*
X763473Y-1591970D01*
X765149Y-1587906D01*
X768400Y-1584909D01*
X776376Y-1580286D01*
X784707Y-1573530D01*
X791819Y-1565503D01*
X797560Y-1556410D01*
X801776Y-1546504D01*
X805281Y-1532331D01*
X807313Y-1529435D01*
X942797Y-1393952D01*
X946099Y-1391716D01*
X950010Y-1390954D01*
X953871Y-1391716D01*
X957173Y-1393952D01*
X1066190Y-1502968D01*
X1067460Y-1504492D01*
X1072743Y-1512417D01*
X1073708Y-1514195D01*
X1077366Y-1522984D01*
X1077925Y-1524914D01*
X1079804Y-1534261D01*
X1080008Y-1536242D01*
X1080008Y-1609852D01*
X1079449Y-1613052D01*
X1077925Y-1615948D01*
X1075080Y-1619758D01*
X1070102Y-1629257D01*
X1066698Y-1639417D01*
X1064971Y-1650034D01*
X1064971Y-1660753D01*
X1066698Y-1671370D01*
X1070102Y-1681530D01*
X1075080Y-1691081D01*
X1081532Y-1699666D01*
X1089304Y-1707083D01*
X1098143Y-1713179D01*
X1107846Y-1717802D01*
X1118158Y-1720748D01*
X1128826Y-1722069D01*
X1139545Y-1721612D01*
X1150061Y-1719478D01*
X1160119Y-1715668D01*
X1169416Y-1710334D01*
X1173784Y-1707489D01*
X1177188Y-1706880D01*
X1608886Y-1706880D01*
X1611884Y-1707337D01*
X1614627Y-1708708D01*
X1621129Y-1713179D01*
X1630832Y-1717802D01*
X1641144Y-1720748D01*
X1651812Y-1722069D01*
X1662531Y-1721612D01*
X1673047Y-1719478D01*
X1683105Y-1715668D01*
X1692402Y-1710334D01*
X1700733Y-1703527D01*
X1707845Y-1695500D01*
X1713585Y-1686407D01*
X1717802Y-1676501D01*
X1720342Y-1666087D01*
X1721205Y-1655419D01*
X1720342Y-1644700D01*
X1717802Y-1634286D01*
X1713585Y-1624380D01*
X1707845Y-1615287D01*
X1700733Y-1607261D01*
X1692402Y-1600504D01*
X1683105Y-1595120D01*
X1679346Y-1593697D01*
X1675841Y-1591462D01*
X1673504Y-1588008D01*
X1672793Y-1583893D01*
X1673758Y-1579829D01*
X1676247Y-1576527D01*
X1679905Y-1574495D01*
X1685239Y-1572818D01*
X1702663Y-1565503D01*
X1710639Y-1560931D01*
X1717852Y-1554886D01*
X1766976Y-1505864D01*
X1773275Y-1498447D01*
X1782876Y-1484172D01*
X1787550Y-1475638D01*
X1794154Y-1459788D01*
X1797100Y-1450543D01*
X1800707Y-1432458D01*
X1801571Y-1422755D01*
X1801571Y-430479D01*
X1800707Y-420776D01*
X1796999Y-402082D01*
X1794306Y-392684D01*
X1786991Y-375107D01*
X1782521Y-366471D01*
X1771954Y-350621D01*
X1765807Y-343001D01*
X1752346Y-329488D01*
X1744878Y-323240D01*
X1729079Y-312674D01*
X1720494Y-307949D01*
X1702917Y-300634D01*
X1693621Y-297738D01*
X1674977Y-293979D01*
X1663954Y-292912D01*
X1570228Y-292912D01*
X1566824Y-292303D01*
X1562404Y-289509D01*
X1553108Y-284124D01*
X1543050Y-280314D01*
X1532534Y-278180D01*
X1521815Y-277723D01*
X1511147Y-279044D01*
X1500835Y-281990D01*
X1491132Y-286613D01*
X1484630Y-291084D01*
X1481886Y-292455D01*
X1478889Y-292912D01*
X1307185Y-292912D01*
X1303782Y-292303D01*
X1299413Y-289509D01*
X1290116Y-284124D01*
X1280058Y-280314D01*
X1269542Y-278180D01*
X1258824Y-277723D01*
X1248156Y-279044D01*
X1237843Y-281990D01*
X1228140Y-286613D01*
X1221638Y-291084D01*
X1218895Y-292455D01*
X1215898Y-292912D01*
X1086002Y-292912D01*
X1076299Y-293725D01*
X1057605Y-297434D01*
X1048258Y-300177D01*
X1030630Y-307441D01*
X1021943Y-311962D01*
X1011072Y-319074D01*
X1006246Y-321868D01*
X998067Y-325475D01*
X975055Y-332994D01*
X967638Y-336245D01*
X957986Y-342188D01*
X949452Y-349453D01*
X942187Y-357987D01*
X938834Y-363423D01*
X935837Y-366572D01*
X931773Y-368147D01*
X927404Y-367893D01*
X923594Y-365861D01*
X920953Y-362356D01*
X919987Y-358140D01*
X919987Y-323545D01*
X918768Y-314299D01*
X915924Y-305308D01*
X910437Y-292201D01*
X905814Y-284226D01*
X899769Y-277012D01*
X855878Y-233019D01*
X848461Y-226720D01*
X834186Y-217119D01*
X825652Y-212445D01*
X809802Y-205841D01*
X800557Y-202895D01*
X782472Y-199288D01*
X772769Y-198424D01*
X429920Y-198424D01*
X420217Y-199288D01*
X401878Y-202895D01*
X392480Y-205638D01*
X375208Y-212801D01*
X366572Y-217271D01*
X350977Y-227685D01*
X343408Y-233781D01*
X330149Y-246989D01*
X323850Y-254457D01*
X313486Y-270002D01*
X308762Y-278587D01*
X301599Y-295859D01*
X298653Y-305155D01*
X294995Y-323443D01*
X293928Y-334467D01*
X293928Y-428904D01*
X293420Y-432155D01*
X291896Y-435000D01*
X289102Y-438759D01*
X284124Y-448259D01*
X280720Y-458419D01*
X278993Y-469036D01*
X278993Y-479755D01*
X280720Y-490372D01*
X284124Y-500532D01*
X289102Y-510082D01*
X291947Y-513892D01*
X293471Y-516737D01*
X294030Y-519988D01*
X294030Y-821791D01*
X293471Y-825042D01*
X291947Y-827938D01*
X289102Y-831748D01*
X284124Y-841248D01*
X280720Y-851408D01*
X278993Y-862025D01*
X278993Y-872744D01*
X280720Y-883361D01*
X284124Y-893571D01*
X289102Y-903071D01*
X291947Y-906881D01*
X293471Y-909777D01*
X294030Y-912977D01*
X294030Y-1216812D01*
X293471Y-1220012D01*
X291947Y-1222908D01*
X289102Y-1226718D01*
X284124Y-1236268D01*
X280720Y-1246428D01*
X278993Y-1257046D01*
X278993Y-1267764D01*
X280720Y-1278382D01*
X284124Y-1288542D01*
X289102Y-1298041D01*
X291947Y-1301851D01*
X293471Y-1304747D01*
X294030Y-1307998D01*
X294030Y-1609801D01*
X293471Y-1613052D01*
X291947Y-1615897D01*
X289102Y-1619758D01*
X284124Y-1629257D01*
X280720Y-1639417D01*
X278993Y-1650034D01*
X278993Y-1660753D01*
X280720Y-1671370D01*
X284124Y-1681530D01*
X289102Y-1691081D01*
X295554Y-1699666D01*
X303276Y-1707083D01*
X312115Y-1713179D01*
X321818Y-1717802D01*
X332130Y-1720748D01*
G37*

%LPD*%
G36*
X1177188Y-815898D02*
G01*
X1173784Y-815289D01*
X1169416Y-812495D01*
X1160119Y-807110D01*
X1150061Y-803300D01*
X1139545Y-801166D01*
X1128826Y-800709D01*
X1118158Y-802030D01*
X1107846Y-805027D01*
X1098143Y-809599D01*
X1095959Y-811123D01*
X1092301Y-812698D01*
X1088288Y-812698D01*
X1083818Y-810666D01*
X1082243Y-809447D01*
X1030732Y-757885D01*
X1026312Y-752957D01*
X1024077Y-748842D01*
X1020419Y-735634D01*
X1016965Y-724966D01*
X1013764Y-717651D01*
X1007821Y-707999D01*
X1000556Y-699465D01*
X992022Y-692200D01*
X982471Y-686308D01*
X972108Y-682040D01*
X961237Y-679399D01*
X949198Y-678535D01*
X939139Y-679043D01*
X930249Y-680059D01*
X922324Y-681431D01*
X906068Y-684784D01*
X897128Y-685749D01*
X890066Y-685901D01*
X784199Y-685901D01*
X780796Y-685292D01*
X776376Y-682498D01*
X767080Y-677113D01*
X757072Y-673303D01*
X746556Y-671169D01*
X735787Y-670712D01*
X725170Y-672033D01*
X714857Y-675030D01*
X705154Y-679602D01*
X698601Y-684123D01*
X695858Y-685444D01*
X692861Y-685901D01*
X521208Y-685901D01*
X517804Y-685292D01*
X513384Y-682498D01*
X504088Y-677113D01*
X494080Y-673303D01*
X483565Y-671169D01*
X472795Y-670712D01*
X462127Y-672033D01*
X451815Y-675030D01*
X442112Y-679602D01*
X433324Y-685698D01*
X425551Y-693166D01*
X419100Y-701751D01*
X416204Y-707288D01*
X413308Y-710692D01*
X409194Y-712520D01*
X404774Y-712470D01*
X400761Y-710438D01*
X398018Y-706932D01*
X397002Y-702564D01*
X397002Y-520293D01*
X397408Y-517448D01*
X398576Y-514858D01*
X404571Y-505409D01*
X408787Y-495503D01*
X411378Y-485089D01*
X412242Y-474421D01*
X411378Y-463702D01*
X408787Y-453288D01*
X404571Y-443382D01*
X398526Y-433832D01*
X397357Y-431190D01*
X396951Y-428396D01*
X396951Y-379069D01*
X397916Y-374700D01*
X400659Y-371195D01*
X404672Y-369214D01*
X409143Y-369112D01*
X413207Y-370941D01*
X416102Y-374345D01*
X419100Y-380085D01*
X425551Y-388620D01*
X433324Y-396087D01*
X442112Y-402183D01*
X451815Y-406806D01*
X462127Y-409752D01*
X472795Y-411073D01*
X483565Y-410616D01*
X494080Y-408482D01*
X504088Y-404672D01*
X513384Y-399288D01*
X517804Y-396494D01*
X521208Y-395884D01*
X676859Y-395884D01*
X680720Y-396697D01*
X684022Y-398881D01*
X686206Y-402183D01*
X687019Y-406044D01*
X687019Y-454914D01*
X687832Y-464616D01*
X691946Y-485241D01*
X694639Y-494639D01*
X702716Y-514045D01*
X707186Y-522681D01*
X718820Y-540156D01*
X725881Y-548741D01*
X783437Y-606247D01*
X790854Y-611886D01*
X799185Y-616254D01*
X816356Y-623316D01*
X825246Y-625652D01*
X834593Y-626516D01*
X887374Y-626516D01*
X893978Y-626872D01*
X898448Y-628192D01*
X910386Y-634949D01*
X920394Y-640029D01*
X927811Y-642924D01*
X938834Y-645566D01*
X950010Y-646480D01*
X961186Y-645566D01*
X972108Y-642975D01*
X982929Y-638454D01*
X998474Y-630580D01*
X1007364Y-626770D01*
X1015441Y-624535D01*
X1028496Y-621842D01*
X1037894Y-619099D01*
X1056030Y-611632D01*
X1064666Y-607110D01*
X1080922Y-596290D01*
X1089456Y-589280D01*
X1135583Y-543153D01*
X1137920Y-541426D01*
X1140714Y-540410D01*
X1150061Y-538480D01*
X1160119Y-534670D01*
X1169416Y-529336D01*
X1173784Y-526491D01*
X1177188Y-525881D01*
X1608886Y-525881D01*
X1611884Y-526338D01*
X1614627Y-527710D01*
X1621129Y-532180D01*
X1630832Y-536803D01*
X1641144Y-539750D01*
X1651812Y-541070D01*
X1662531Y-540613D01*
X1673047Y-538480D01*
X1683308Y-534568D01*
X1687322Y-533247D01*
X1691538Y-533704D01*
X1695196Y-535787D01*
X1697685Y-539242D01*
X1698548Y-543356D01*
X1698548Y-675741D01*
X1697786Y-679653D01*
X1695551Y-682904D01*
X1692300Y-685139D01*
X1688388Y-685901D01*
X1570228Y-685901D01*
X1566824Y-685292D01*
X1562404Y-682498D01*
X1553108Y-677113D01*
X1543050Y-673303D01*
X1532534Y-671169D01*
X1521815Y-670712D01*
X1511147Y-672033D01*
X1500835Y-675030D01*
X1491132Y-679602D01*
X1484630Y-684123D01*
X1481886Y-685444D01*
X1478838Y-685901D01*
X1307236Y-685901D01*
X1303782Y-685292D01*
X1299413Y-682498D01*
X1290116Y-677113D01*
X1280058Y-673303D01*
X1269542Y-671169D01*
X1258824Y-670712D01*
X1248156Y-672033D01*
X1237843Y-675030D01*
X1228140Y-679602D01*
X1219301Y-685698D01*
X1211580Y-693166D01*
X1205128Y-701751D01*
X1200099Y-711250D01*
X1196695Y-721410D01*
X1194968Y-732028D01*
X1194968Y-742746D01*
X1196695Y-753364D01*
X1200099Y-763574D01*
X1205128Y-773074D01*
X1211580Y-781659D01*
X1219301Y-789076D01*
X1228140Y-795172D01*
X1231036Y-796544D01*
X1234186Y-798880D01*
X1236218Y-802182D01*
X1236827Y-806043D01*
X1236014Y-809853D01*
X1233779Y-813053D01*
X1230528Y-815136D01*
X1226667Y-815898D01*
G37*

%LPD*%
G36*
X409194Y-1107541D02*
G01*
X404774Y-1107440D01*
X400761Y-1105458D01*
X398018Y-1101953D01*
X397002Y-1097584D01*
X397002Y-929081D01*
X397814Y-925169D01*
X399999Y-921918D01*
X403301Y-919683D01*
X407162Y-918921D01*
X822909Y-918921D01*
X825906Y-919378D01*
X828649Y-920699D01*
X835152Y-925169D01*
X844854Y-929792D01*
X849680Y-931164D01*
X853338Y-933145D01*
X855929Y-936447D01*
X856996Y-940511D01*
X856335Y-944626D01*
X854049Y-948131D01*
X738987Y-1063142D01*
X736244Y-1065123D01*
X733044Y-1066088D01*
X725170Y-1067003D01*
X714857Y-1070000D01*
X705154Y-1074623D01*
X698652Y-1079093D01*
X695858Y-1080465D01*
X692861Y-1080922D01*
X521208Y-1080922D01*
X517804Y-1080312D01*
X513384Y-1077468D01*
X504088Y-1072134D01*
X494080Y-1068324D01*
X483565Y-1066139D01*
X472795Y-1065733D01*
X462127Y-1067003D01*
X451815Y-1070000D01*
X442112Y-1074623D01*
X433324Y-1080719D01*
X425551Y-1088136D01*
X419100Y-1096721D01*
X416204Y-1102309D01*
X413308Y-1105712D01*
G37*

%LPD*%
G36*
X1187500Y-1120140D02*
G01*
X1183284Y-1118920D01*
X1179982Y-1116025D01*
X1178204Y-1111961D01*
X1175156Y-1100988D01*
X1166723Y-1080668D01*
X1162202Y-1071981D01*
X1150010Y-1053693D01*
X1143000Y-1045159D01*
X1031087Y-933246D01*
X1026312Y-927963D01*
X1024077Y-923848D01*
X1021384Y-913993D01*
X1021080Y-910082D01*
X1022299Y-906322D01*
X1024890Y-903325D01*
X1028395Y-901547D01*
X1032306Y-901242D01*
X1036066Y-902411D01*
X1042365Y-905865D01*
X1056792Y-911860D01*
X1066088Y-914806D01*
X1081379Y-917854D01*
X1086154Y-918362D01*
X1088593Y-918971D01*
X1090828Y-920140D01*
X1098143Y-925169D01*
X1107846Y-929792D01*
X1118158Y-932789D01*
X1128826Y-934059D01*
X1139545Y-933653D01*
X1150061Y-931468D01*
X1160119Y-927658D01*
X1169416Y-922324D01*
X1173784Y-919530D01*
X1177188Y-918921D01*
X1608886Y-918921D01*
X1611934Y-919378D01*
X1614678Y-920699D01*
X1621129Y-925169D01*
X1630832Y-929792D01*
X1641144Y-932789D01*
X1651812Y-934059D01*
X1662531Y-933653D01*
X1673047Y-931468D01*
X1683308Y-927557D01*
X1687322Y-926236D01*
X1691538Y-926693D01*
X1695196Y-928827D01*
X1697685Y-932230D01*
X1698548Y-936345D01*
X1698548Y-1070762D01*
X1697786Y-1074623D01*
X1695551Y-1077925D01*
X1692300Y-1080109D01*
X1688388Y-1080922D01*
X1570228Y-1080922D01*
X1566773Y-1080312D01*
X1562404Y-1077468D01*
X1553108Y-1072134D01*
X1543050Y-1068324D01*
X1532534Y-1066139D01*
X1521815Y-1065733D01*
X1511147Y-1067003D01*
X1500835Y-1070000D01*
X1491132Y-1074623D01*
X1484630Y-1079093D01*
X1481886Y-1080465D01*
X1478838Y-1080922D01*
X1307185Y-1080922D01*
X1303782Y-1080312D01*
X1299413Y-1077468D01*
X1290116Y-1072134D01*
X1280058Y-1068324D01*
X1269542Y-1066139D01*
X1258824Y-1065733D01*
X1248156Y-1067003D01*
X1237843Y-1070000D01*
X1228140Y-1074623D01*
X1219301Y-1080719D01*
X1211580Y-1088136D01*
X1205128Y-1096721D01*
X1200099Y-1106220D01*
X1197813Y-1113231D01*
X1195527Y-1116990D01*
X1191869Y-1119428D01*
G37*

%LPD*%
G36*
X409194Y-1500530D02*
G01*
X404774Y-1500428D01*
X400761Y-1498447D01*
X398018Y-1494942D01*
X397002Y-1490573D01*
X397002Y-1324051D01*
X397814Y-1320190D01*
X399999Y-1316888D01*
X403301Y-1314704D01*
X407162Y-1313891D01*
X822909Y-1313891D01*
X825906Y-1314348D01*
X828649Y-1315720D01*
X835152Y-1320190D01*
X844956Y-1324813D01*
X848614Y-1326794D01*
X851204Y-1330096D01*
X852271Y-1334109D01*
X851611Y-1338275D01*
X849274Y-1341780D01*
X734314Y-1456740D01*
X731570Y-1458671D01*
X728370Y-1459636D01*
X725170Y-1460042D01*
X714857Y-1462989D01*
X705154Y-1467612D01*
X698652Y-1472082D01*
X695909Y-1473454D01*
X692861Y-1473911D01*
X521208Y-1473911D01*
X517804Y-1473301D01*
X513384Y-1470507D01*
X504088Y-1465122D01*
X494080Y-1461312D01*
X483565Y-1459179D01*
X472795Y-1458722D01*
X462127Y-1460042D01*
X451815Y-1462989D01*
X442112Y-1467612D01*
X433324Y-1473708D01*
X425551Y-1481175D01*
X419100Y-1489710D01*
X416204Y-1495298D01*
X413308Y-1498701D01*
G37*

%LPD*%
G36*
X1188008Y-1511604D02*
G01*
X1183792Y-1510385D01*
X1180490Y-1507490D01*
X1178712Y-1503426D01*
X1177848Y-1499260D01*
X1175156Y-1489913D01*
X1166723Y-1469542D01*
X1162202Y-1460906D01*
X1150010Y-1442618D01*
X1143000Y-1434033D01*
X1006398Y-1297482D01*
X1003706Y-1293774D01*
X1002182Y-1290116D01*
X1001521Y-1285646D01*
X1001521Y-1163167D01*
X1001877Y-1156055D01*
X1003198Y-1151534D01*
X1009954Y-1139647D01*
X1015034Y-1129690D01*
X1017981Y-1122172D01*
X1020622Y-1111199D01*
X1021486Y-1100023D01*
X1021029Y-1094181D01*
X1021537Y-1090117D01*
X1023619Y-1086561D01*
X1026921Y-1084122D01*
X1030884Y-1083208D01*
X1034897Y-1083919D01*
X1038352Y-1086205D01*
X1066190Y-1114044D01*
X1067460Y-1115568D01*
X1072743Y-1123492D01*
X1073708Y-1125270D01*
X1077366Y-1134059D01*
X1077925Y-1135989D01*
X1079804Y-1145336D01*
X1080008Y-1147318D01*
X1080008Y-1216863D01*
X1079449Y-1220063D01*
X1077925Y-1222959D01*
X1075080Y-1226718D01*
X1070102Y-1236268D01*
X1066698Y-1246428D01*
X1064971Y-1257046D01*
X1064971Y-1267764D01*
X1066698Y-1278382D01*
X1070102Y-1288542D01*
X1075080Y-1298041D01*
X1081532Y-1306626D01*
X1089304Y-1314094D01*
X1098143Y-1320190D01*
X1107846Y-1324762D01*
X1118158Y-1327759D01*
X1128826Y-1329080D01*
X1139545Y-1328623D01*
X1150061Y-1326489D01*
X1160119Y-1322679D01*
X1169416Y-1317294D01*
X1173784Y-1314500D01*
X1177188Y-1313891D01*
X1608886Y-1313891D01*
X1611884Y-1314348D01*
X1614678Y-1315720D01*
X1621129Y-1320190D01*
X1630832Y-1324762D01*
X1641144Y-1327759D01*
X1651812Y-1329080D01*
X1662531Y-1328623D01*
X1673047Y-1326489D01*
X1683308Y-1322578D01*
X1687322Y-1321257D01*
X1691538Y-1321714D01*
X1695196Y-1323797D01*
X1697685Y-1327200D01*
X1698548Y-1331366D01*
X1698548Y-1417066D01*
X1697482Y-1423568D01*
X1695094Y-1429715D01*
X1691589Y-1435303D01*
X1690319Y-1436827D01*
X1656130Y-1470914D01*
X1652828Y-1473098D01*
X1648968Y-1473911D01*
X1570177Y-1473911D01*
X1566773Y-1473301D01*
X1562404Y-1470507D01*
X1553108Y-1465122D01*
X1543050Y-1461312D01*
X1532534Y-1459179D01*
X1521815Y-1458722D01*
X1511147Y-1460042D01*
X1500835Y-1462989D01*
X1491132Y-1467612D01*
X1484630Y-1472082D01*
X1481886Y-1473454D01*
X1478889Y-1473911D01*
X1307185Y-1473911D01*
X1303782Y-1473301D01*
X1299413Y-1470507D01*
X1290116Y-1465122D01*
X1280058Y-1461312D01*
X1269542Y-1459179D01*
X1258824Y-1458722D01*
X1248156Y-1460042D01*
X1237843Y-1462989D01*
X1228140Y-1467612D01*
X1219301Y-1473708D01*
X1211580Y-1481175D01*
X1205128Y-1489710D01*
X1200099Y-1499260D01*
X1198321Y-1504696D01*
X1196035Y-1508455D01*
X1192377Y-1510944D01*
G37*

%LPD*%
G36*
X1010970Y-389026D02*
G01*
X970737Y-389839D01*
X968654Y-396189D01*
X964437Y-411581D01*
X962812Y-416051D01*
X960678Y-420573D01*
X957681Y-425246D01*
X953668Y-430377D01*
X948385Y-436067D01*
X963930Y-451612D01*
X969619Y-446328D01*
X974750Y-442315D01*
X979424Y-439318D01*
X983945Y-437184D01*
X988415Y-435559D01*
X1003808Y-431342D01*
X1010158Y-429259D01*
G37*
G36*
X1039368Y-349046D02*
G01*
X1026566Y-356971D01*
X1021334Y-359664D01*
X1016558Y-361797D01*
X1007262Y-365099D01*
X989837Y-370738D01*
X989025Y-410972D01*
X1029258Y-410159D01*
X1031138Y-404063D01*
X1034745Y-388772D01*
X1036218Y-384352D01*
X1038402Y-380136D01*
X1041450Y-375920D01*
X1045768Y-371703D01*
X1051610Y-367334D01*
G37*
G36*
X950010Y-1084478D02*
G01*
X922121Y-1113485D01*
X925169Y-1119479D01*
X933043Y-1133297D01*
X935075Y-1137615D01*
X936701Y-1142339D01*
X937971Y-1147775D01*
X938733Y-1154226D01*
X938987Y-1161999D01*
X960983Y-1161999D01*
X961288Y-1154226D01*
X962050Y-1147775D01*
X963269Y-1142339D01*
X964946Y-1137666D01*
X966978Y-1133297D01*
X974852Y-1119479D01*
X977900Y-1113536D01*
G37*
G36*
X960983Y-914044D02*
G01*
X920750Y-914806D01*
X918667Y-921207D01*
X914450Y-936548D01*
X912825Y-941069D01*
X910691Y-945540D01*
X907694Y-950264D01*
X903681Y-955344D01*
X898398Y-961034D01*
X913942Y-976630D01*
X919632Y-971296D01*
X924763Y-967282D01*
X929436Y-964336D01*
X933958Y-962152D01*
X938428Y-960526D01*
X948182Y-957884D01*
X960170Y-954278D01*
G37*
G36*
X939037Y-914044D02*
G01*
X939800Y-954278D01*
X951839Y-957884D01*
X961542Y-960526D01*
X966063Y-962152D01*
X970534Y-964336D01*
X975258Y-967282D01*
X980389Y-971296D01*
X986078Y-976630D01*
X1001623Y-961085D01*
X996289Y-955395D01*
X992327Y-950264D01*
X989330Y-945540D01*
X987196Y-941069D01*
X985570Y-936548D01*
X981354Y-921207D01*
X979322Y-914806D01*
G37*
G36*
X939037Y-739038D02*
G01*
X939850Y-779272D01*
X946200Y-781354D01*
X961593Y-785571D01*
X966063Y-787196D01*
X970584Y-789330D01*
X975258Y-792327D01*
X980389Y-796340D01*
X986078Y-801624D01*
X1001623Y-786079D01*
X996340Y-780389D01*
X992327Y-775258D01*
X989330Y-770585D01*
X987196Y-766064D01*
X985570Y-761593D01*
X981354Y-746201D01*
X979271Y-739851D01*
G37*
G36*
X948994Y-719023D02*
G01*
X941425Y-719480D01*
X935024Y-720293D01*
X913333Y-724662D01*
X907034Y-725576D01*
X899617Y-726186D01*
X890676Y-726440D01*
X890676Y-748436D01*
X897026Y-748690D01*
X902258Y-749604D01*
X906678Y-751027D01*
X910386Y-753008D01*
X913637Y-755446D01*
X916686Y-758444D01*
X926337Y-770026D01*
X964184Y-756310D01*
G37*
G36*
X963523Y-547065D02*
G01*
X934516Y-574954D01*
X963523Y-602894D01*
X984250Y-592429D01*
X988771Y-590448D01*
X993648Y-588619D01*
X999236Y-586892D01*
X1005890Y-585165D01*
X1013917Y-583438D01*
X1009650Y-561848D01*
X1002385Y-562914D01*
X996340Y-562914D01*
X991209Y-562102D01*
X986688Y-560578D01*
X982522Y-558495D01*
X969162Y-550113D01*
G37*
G36*
X936498Y-547065D02*
G01*
X916686Y-558038D01*
X912368Y-560070D01*
X907643Y-561695D01*
X902208Y-562965D01*
X895807Y-563727D01*
X887984Y-563981D01*
X887984Y-585978D01*
X895807Y-586282D01*
X902258Y-587044D01*
X907643Y-588264D01*
X912368Y-589940D01*
X916686Y-591972D01*
X936498Y-602894D01*
X965504Y-574954D01*
G37*
D10*
X345516Y-474395D02*
G01*
X345516Y-867410D01*
X345516Y-867410D02*
G01*
X345516Y-1262405D01*
X345516Y-1622983D02*
G01*
X345516Y-1262405D01*
X345516Y-1622983D02*
G01*
X351675Y-1637852D01*
X363057Y-1649234D01*
X377926Y-1655394D01*
X868502Y-1655394D01*
X703752Y-1525396D02*
G01*
X475513Y-1525396D01*
X738504Y-1132408D02*
G01*
X475513Y-1132408D01*
X738504Y-737412D02*
G01*
X475513Y-737412D01*
X1524482Y-737412D02*
G01*
X1261490Y-737412D01*
X1261490Y-344398D02*
G01*
X1524482Y-344398D01*
X706094Y-344398D02*
G01*
X475513Y-344398D01*
X1524482Y-1132408D02*
G01*
X1261490Y-1132408D01*
X1524482Y-1525396D02*
G01*
X1261490Y-1525396D01*
X1163904Y-1655394D02*
G01*
X1654479Y-1655394D01*
X849884Y-299973D02*
G01*
X819076Y-269008D01*
X805141Y-259659D01*
X789650Y-253220D01*
X773196Y-249936D01*
X429483Y-249936D01*
X411472Y-253517D01*
X394507Y-260545D01*
X379237Y-270748D01*
X366252Y-283733D01*
X356049Y-299003D01*
X349021Y-315968D01*
X345439Y-333979D01*
X345439Y-474471D01*
X849884Y-299973D02*
G01*
X863663Y-313753D01*
X868502Y-325434D01*
X868502Y-457672D01*
X1106919Y-498970D02*
G01*
X1052700Y-553189D01*
X1036706Y-563874D01*
X1018933Y-571235D01*
X1000066Y-574989D01*
X949998Y-574989D01*
X799998Y-549998D02*
G01*
X818494Y-568495D01*
X834174Y-574989D01*
X949998Y-574989D01*
X799998Y-549998D02*
G01*
X761941Y-511942D01*
X750453Y-494748D01*
X742538Y-475642D01*
X738504Y-455363D01*
X738504Y-376809D01*
X732345Y-361939D01*
X720963Y-350558D01*
X706094Y-344398D01*
X999997Y-399999D02*
G01*
X940988Y-459008D01*
X929700Y-466552D01*
X916716Y-471929D01*
X904316Y-474395D01*
X885225Y-474395D01*
X868502Y-457672D01*
X999997Y-399999D02*
G01*
X1034407Y-365589D01*
X1049954Y-355201D01*
X1067229Y-348046D01*
X1085565Y-344398D01*
X1261490Y-344398D01*
X1106919Y-498970D02*
G01*
X1124948Y-486923D01*
X1144981Y-478624D01*
X1166246Y-474395D01*
X1654479Y-474395D01*
X868502Y-867410D02*
G01*
X345516Y-867410D01*
X868502Y-1262405D02*
G01*
X345516Y-1262405D01*
X949998Y-924999D02*
G01*
X742589Y-1132408D01*
X738504Y-1132408D01*
X949998Y-1099997D02*
G01*
X949998Y-1313903D01*
X763079Y-1500822D01*
X745050Y-1512869D01*
X725017Y-1521167D01*
X703752Y-1525396D01*
X949998Y-924999D02*
G01*
X1106919Y-1081920D01*
X1118966Y-1099949D01*
X1127264Y-1119982D01*
X1131493Y-1141247D01*
X1131493Y-1229995D01*
X949998Y-1313903D02*
G01*
X1106919Y-1470825D01*
X1118966Y-1488854D01*
X1127264Y-1508887D01*
X1131493Y-1530151D01*
X1131493Y-1622983D01*
X1137653Y-1637852D01*
X1149035Y-1649234D01*
X1163904Y-1655394D01*
X1131493Y-1229995D02*
G01*
X1137653Y-1244864D01*
X1149035Y-1256245D01*
X1163904Y-1262405D01*
X1654479Y-1262405D01*
X1700021Y-1499870D02*
G01*
X1730987Y-1469062D01*
X1740336Y-1455127D01*
X1746775Y-1439636D01*
X1750060Y-1423182D01*
X1750060Y-1132408D01*
X1750060Y-737412D01*
X1750060Y-430029D01*
X1746410Y-411685D01*
X1739252Y-394403D01*
X1728861Y-378851D01*
X1715632Y-365622D01*
X1700080Y-355231D01*
X1682798Y-348073D01*
X1664454Y-344423D01*
X1524507Y-344423D01*
X1700021Y-1499870D02*
G01*
X1681129Y-1518762D01*
X1665112Y-1525396D01*
X1524482Y-1525396D01*
X1524482Y-737412D02*
G01*
X1750060Y-737412D01*
X1131493Y-867410D02*
G01*
X1654479Y-867410D01*
X949998Y-749998D02*
G01*
X1050140Y-850140D01*
X1062809Y-858606D01*
X1076888Y-864438D01*
X1091831Y-867410D01*
X1131493Y-867410D01*
X738504Y-737412D02*
G01*
X937412Y-737412D01*
X949998Y-749998D01*
X1524482Y-1132408D02*
G01*
X1750060Y-1132408D01*
D11*
G01*
X345516Y-474395D03*
G01*
X345516Y-867410D03*
G01*
X345516Y-1262405D03*
G01*
X345516Y-1655394D03*
G01*
X475513Y-344398D03*
G01*
X475513Y-737412D03*
G01*
X475513Y-1132408D03*
G01*
X475513Y-1525396D03*
G01*
X738504Y-344398D03*
G01*
X738504Y-737412D03*
G01*
X738504Y-1132408D03*
G01*
X738504Y-1525396D03*
G01*
X868502Y-474395D03*
G01*
X868502Y-867410D03*
G01*
X868502Y-1262405D03*
G01*
X868502Y-1655394D03*
G01*
X1131493Y-474395D03*
G01*
X1131493Y-867410D03*
G01*
X1131493Y-1262405D03*
G01*
X1131493Y-1655394D03*
G01*
X1261490Y-344398D03*
G01*
X1261490Y-737412D03*
G01*
X1261490Y-1132408D03*
G01*
X1261490Y-1525396D03*
G01*
X1524482Y-344398D03*
G01*
X1524482Y-737412D03*
G01*
X1524482Y-1132408D03*
G01*
X1524482Y-1525396D03*
G01*
X1654479Y-474395D03*
G01*
X1654479Y-867410D03*
G01*
X1654479Y-1262405D03*
G01*
X1654479Y-1655394D03*
D10*
G75*
G01*
X345516Y-832711D02*
G03*
X380215Y-867410I34699J0D01*
G75*
G01*
X380215Y-867410D02*
G03*
X345516Y-902109I0J-34699D01*
G75*
G01*
X345516Y-1227706D02*
G03*
X380215Y-1262405I34699J0D01*
G75*
G01*
X380215Y-1262405D02*
G03*
X345516Y-1297104I0J-34699D01*
G75*
G01*
X1750060Y-1167107D02*
G03*
X1715361Y-1132408I-34699J0D01*
G75*
G01*
X1715361Y-1132408D02*
G03*
X1750060Y-1097709I0J34699D01*
G75*
G01*
X1750060Y-772112D02*
G03*
X1715361Y-737413I-34699J0D01*
G75*
G01*
X1715361Y-737413D02*
G03*
X1750060Y-702714I0J34699D01*
G75*
G01*
X949998Y-1285649D02*
G03*
X969978Y-1333884I68214J0D01*
G75*
G01*
X974534Y-1338440D02*
G03*
X925462Y-1338440I-24536J-24536D01*
G75*
G01*
X930018Y-1333884D02*
G03*
X949998Y-1285649I-48234J48235D01*
G75*
G01*
X974534Y-949536D02*
G03*
X925462Y-949536I-24536J-24535D01*
G75*
G01*
X714334Y-1132408D02*
G03*
X762569Y-1112429I0J68214D01*
G75*
G01*
X957392Y-757392D02*
G03*
X909157Y-737413I-48235J-48235D01*
D12*
G01*
X950010Y-1099997D03*
G01*
X950010Y-924991D03*
G01*
X950010Y-750011D03*
G01*
X950010Y-574979D03*
G01*
X999997Y-399999D03*
G01*
X99999Y-99999D03*
G01*
X99999Y-299999D03*
G01*
X99999Y-499998D03*
G01*
X99999Y-699998D03*
G01*
X99999Y-899998D03*
G01*
X99999Y-1099997D03*
G01*
X99999Y-1299997D03*
G01*
X99999Y-1499996D03*
G01*
X99999Y-1699996D03*
G01*
X1899996Y-99999D03*
G01*
X1899996Y-299999D03*
G01*
X1899996Y-1499996D03*
G01*
X1899996Y-1699996D03*
G01*
X1399997Y-1374978D03*
G01*
X450011Y-1024991D03*
G01*
X450011Y-475005D03*
G01*
X449935Y-1399971D03*
G01*
X1399997Y-1024991D03*
G01*
X1399997Y-650011D03*
M02*
